<?xml version="1.0" encoding="UTF-8" standalone="no"?>
<!DOCTYPE svg PUBLIC "-//W3C//DTD SVG 1.1//EN"
 "http://www.w3.org/Graphics/SVG/1.1/DTD/svg11.dtd">
<!-- Generated by graphviz version 2.43.0 (0)
 -->
<!-- Title: Epidemia Pages: 1 -->
<svg width="2211pt" height="760pt"
 viewBox="0.00 0.00 2211.30 759.68" xmlns="http://www.w3.org/2000/svg" xmlns:xlink="http://www.w3.org/1999/xlink">
<g id="graph0" class="graph" transform="scale(1 1) rotate(0) translate(4 755.68)">
<title>Epidemia</title>
<polygon fill="white" stroke="transparent" points="-4,4 -4,-755.68 2207.3,-755.68 2207.3,4 -4,4"/>
<!-- 0 -->
<g id="node1" class="node">
<title>0</title>
<ellipse fill="blue" stroke="blue" cx="753.3" cy="-287.32" rx="57.69" ry="18"/>
<text text-anchor="middle" x="753.3" y="-283.62" font-family="Times,serif" font-size="14.00">Usuario_0</text>
</g>
<!-- 1 -->
<g id="node2" class="node">
<title>1</title>
<ellipse fill="blue" stroke="blue" cx="878.88" cy="-632.34" rx="57.69" ry="18"/>
<text text-anchor="middle" x="878.88" y="-628.64" font-family="Times,serif" font-size="14.00">Usuario_1</text>
</g>
<!-- 0&#45;&#45;1 -->
<g id="edge1" class="edge">
<title>0&#45;&#45;1</title>
<path fill="none" stroke="black" d="M759.87,-305.38C781.52,-364.86 850.44,-554.21 872.21,-614.04"/>
</g>
<!-- 13 -->
<g id="node14" class="node">
<title>13</title>
<ellipse fill="blue" stroke="blue" cx="753.3" cy="-482.68" rx="63.89" ry="18"/>
<text text-anchor="middle" x="753.3" y="-478.98" font-family="Times,serif" font-size="14.00">Usuario_13</text>
</g>
<!-- 0&#45;&#45;13 -->
<g id="edge2" class="edge">
<title>0&#45;&#45;13</title>
<path fill="none" stroke="black" d="M753.3,-305.35C753.3,-342.47 753.3,-427.09 753.3,-464.41"/>
</g>
<!-- 2 -->
<g id="node3" class="node">
<title>2</title>
<ellipse fill="green" stroke="green" cx="1071.27" cy="-666.26" rx="57.69" ry="18"/>
<text text-anchor="middle" x="1071.27" y="-662.56" font-family="Times,serif" font-size="14.00">Usuario_2</text>
</g>
<!-- 1&#45;&#45;2 -->
<g id="edge3" class="edge">
<title>1&#45;&#45;2</title>
<path fill="none" stroke="black" d="M929.43,-641.25C957.59,-646.22 992.56,-652.39 1020.73,-657.35"/>
</g>
<!-- 3 -->
<g id="node4" class="node">
<title>3</title>
<ellipse fill="green" stroke="green" cx="1240.46" cy="-568.58" rx="57.69" ry="18"/>
<text text-anchor="middle" x="1240.46" y="-564.88" font-family="Times,serif" font-size="14.00">Usuario_3</text>
</g>
<!-- 2&#45;&#45;3 -->
<g id="edge4" class="edge">
<title>2&#45;&#45;3</title>
<path fill="none" stroke="black" d="M1098.83,-650.35C1130.29,-632.19 1181.46,-602.65 1212.91,-584.49"/>
</g>
<!-- 6 -->
<g id="node7" class="node">
<title>6</title>
<ellipse fill="yellow" stroke="yellow" cx="1307.28" cy="-385" rx="57.69" ry="18"/>
<text text-anchor="middle" x="1307.28" y="-381.3" font-family="Times,serif" font-size="14.00">Usuario_6</text>
</g>
<!-- 3&#45;&#45;6 -->
<g id="edge5" class="edge">
<title>3&#45;&#45;6</title>
<path fill="none" stroke="black" d="M1246.99,-550.65C1259.76,-515.55 1287.93,-438.16 1300.73,-403.01"/>
</g>
<!-- 4 -->
<g id="node5" class="node">
<title>4</title>
<ellipse fill="green" stroke="green" cx="1624.81" cy="-385" rx="57.69" ry="18"/>
<text text-anchor="middle" x="1624.81" y="-381.3" font-family="Times,serif" font-size="14.00">Usuario_4</text>
</g>
<!-- 5 -->
<g id="node6" class="node">
<title>5</title>
<ellipse fill="blue" stroke="blue" cx="1437.13" cy="-385" rx="57.69" ry="18"/>
<text text-anchor="middle" x="1437.13" y="-381.3" font-family="Times,serif" font-size="14.00">Usuario_5</text>
</g>
<!-- 4&#45;&#45;5 -->
<g id="edge6" class="edge">
<title>4&#45;&#45;5</title>
<path fill="none" stroke="black" d="M1566.71,-385C1544,-385 1518,-385 1495.27,-385"/>
</g>
<!-- 5&#45;&#45;6 -->
<g id="edge7" class="edge">
<title>5&#45;&#45;6</title>
<path fill="none" stroke="black" d="M1379.04,-385C1374.45,-385 1369.81,-385 1365.22,-385"/>
</g>
<!-- 7 -->
<g id="node8" class="node">
<title>7</title>
<ellipse fill="green" stroke="green" cx="1240.46" cy="-201.42" rx="57.69" ry="18"/>
<text text-anchor="middle" x="1240.46" y="-197.72" font-family="Times,serif" font-size="14.00">Usuario_7</text>
</g>
<!-- 6&#45;&#45;7 -->
<g id="edge8" class="edge">
<title>6&#45;&#45;7</title>
<path fill="none" stroke="black" d="M1300.75,-367.06C1287.98,-331.97 1259.81,-254.58 1247.02,-219.43"/>
</g>
<!-- 8 -->
<g id="node9" class="node">
<title>8</title>
<ellipse fill="green" stroke="green" cx="1071.27" cy="-103.74" rx="57.69" ry="18"/>
<text text-anchor="middle" x="1071.27" y="-100.04" font-family="Times,serif" font-size="14.00">Usuario_8</text>
</g>
<!-- 7&#45;&#45;8 -->
<g id="edge10" class="edge">
<title>7&#45;&#45;8</title>
<path fill="none" stroke="black" d="M1212.9,-185.51C1181.44,-167.34 1130.28,-137.8 1098.82,-119.64"/>
</g>
<!-- 14 -->
<g id="node15" class="node">
<title>14</title>
<ellipse fill="blue" stroke="blue" cx="878.88" cy="-137.66" rx="63.89" ry="18"/>
<text text-anchor="middle" x="878.88" y="-133.96" font-family="Times,serif" font-size="14.00">Usuario_14</text>
</g>
<!-- 7&#45;&#45;14 -->
<g id="edge9" class="edge">
<title>7&#45;&#45;14</title>
<path fill="none" stroke="black" d="M1189.8,-192.49C1122.07,-180.54 1002.49,-159.46 933.02,-147.21"/>
</g>
<!-- 8&#45;&#45;14 -->
<g id="edge11" class="edge">
<title>8&#45;&#45;14</title>
<path fill="none" stroke="black" d="M1020.72,-112.65C993.78,-117.4 960.62,-123.25 933.13,-128.09"/>
</g>
<!-- 9 -->
<g id="node10" class="node">
<title>9</title>
<ellipse fill="green" stroke="green" cx="1347.9" cy="-18" rx="57.69" ry="18"/>
<text text-anchor="middle" x="1347.9" y="-14.3" font-family="Times,serif" font-size="14.00">Usuario_9</text>
</g>
<!-- 10 -->
<g id="node11" class="node">
<title>10</title>
<ellipse fill="green" stroke="green" cx="1541.44" cy="-18" rx="63.89" ry="18"/>
<text text-anchor="middle" x="1541.44" y="-14.3" font-family="Times,serif" font-size="14.00">Usuario_10</text>
</g>
<!-- 9&#45;&#45;10 -->
<g id="edge12" class="edge">
<title>9&#45;&#45;10</title>
<path fill="none" stroke="black" d="M1405.97,-18C1428.57,-18 1454.55,-18 1477.67,-18"/>
</g>
<!-- 11 -->
<g id="node12" class="node">
<title>11</title>
<ellipse fill="green" stroke="green" cx="1740.83" cy="-18" rx="63.89" ry="18"/>
<text text-anchor="middle" x="1740.83" y="-14.3" font-family="Times,serif" font-size="14.00">Usuario_11</text>
</g>
<!-- 10&#45;&#45;11 -->
<g id="edge13" class="edge">
<title>10&#45;&#45;11</title>
<path fill="none" stroke="black" d="M1605.35,-18C1628.24,-18 1654.04,-18 1676.94,-18"/>
</g>
<!-- 12 -->
<g id="node13" class="node">
<title>12</title>
<ellipse fill="green" stroke="green" cx="1940.22" cy="-18" rx="63.89" ry="18"/>
<text text-anchor="middle" x="1940.22" y="-14.3" font-family="Times,serif" font-size="14.00">Usuario_12</text>
</g>
<!-- 11&#45;&#45;12 -->
<g id="edge14" class="edge">
<title>11&#45;&#45;12</title>
<path fill="none" stroke="black" d="M1804.74,-18C1827.63,-18 1853.43,-18 1876.33,-18"/>
</g>
<!-- 19 -->
<g id="node20" class="node">
<title>19</title>
<ellipse fill="green" stroke="green" cx="2139.6" cy="-18" rx="63.89" ry="18"/>
<text text-anchor="middle" x="2139.6" y="-14.3" font-family="Times,serif" font-size="14.00">Usuario_19</text>
</g>
<!-- 12&#45;&#45;19 -->
<g id="edge15" class="edge">
<title>12&#45;&#45;19</title>
<path fill="none" stroke="black" d="M2004.13,-18C2027.02,-18 2052.82,-18 2075.71,-18"/>
</g>
<!-- 13&#45;&#45;14 -->
<g id="edge17" class="edge">
<title>13&#45;&#45;14</title>
<path fill="none" stroke="black" d="M759.87,-464.62C781.52,-405.14 850.44,-215.79 872.21,-155.96"/>
</g>
<!-- 15 -->
<g id="node16" class="node">
<title>15</title>
<ellipse fill="orange" stroke="orange" cx="625.79" cy="-529.09" rx="63.89" ry="18"/>
<text text-anchor="middle" x="625.79" y="-525.39" font-family="Times,serif" font-size="14.00">Usuario_15</text>
</g>
<!-- 13&#45;&#45;15 -->
<g id="edge16" class="edge">
<title>13&#45;&#45;15</title>
<path fill="none" stroke="black" d="M714,-496.99C698.49,-502.63 680.7,-509.11 665.17,-514.76"/>
</g>
<!-- 16 -->
<g id="node17" class="node">
<title>16</title>
<ellipse fill="green" stroke="green" cx="438.42" cy="-597.29" rx="63.89" ry="18"/>
<text text-anchor="middle" x="438.42" y="-593.59" font-family="Times,serif" font-size="14.00">Usuario_16</text>
</g>
<!-- 15&#45;&#45;16 -->
<g id="edge18" class="edge">
<title>15&#45;&#45;16</title>
<path fill="none" stroke="black" d="M586.51,-543.39C554.53,-555.03 509.61,-571.38 477.65,-583.01"/>
</g>
<!-- 17 -->
<g id="node18" class="node">
<title>17</title>
<ellipse fill="green" stroke="green" cx="251.06" cy="-665.48" rx="63.89" ry="18"/>
<text text-anchor="middle" x="251.06" y="-661.78" font-family="Times,serif" font-size="14.00">Usuario_17</text>
</g>
<!-- 16&#45;&#45;17 -->
<g id="edge19" class="edge">
<title>16&#45;&#45;17</title>
<path fill="none" stroke="black" d="M399.14,-611.58C367.17,-623.22 322.25,-639.57 290.28,-651.21"/>
</g>
<!-- 18 -->
<g id="node19" class="node">
<title>18</title>
<ellipse fill="green" stroke="green" cx="63.69" cy="-733.68" rx="63.89" ry="18"/>
<text text-anchor="middle" x="63.69" y="-729.98" font-family="Times,serif" font-size="14.00">Usuario_18</text>
</g>
<!-- 17&#45;&#45;18 -->
<g id="edge20" class="edge">
<title>17&#45;&#45;18</title>
<path fill="none" stroke="black" d="M211.78,-679.78C179.8,-691.42 134.88,-707.77 102.92,-719.4"/>
</g>
</g>
</svg>
