<?xml version="1.0" encoding="UTF-8" standalone="no"?>
<!DOCTYPE svg PUBLIC "-//W3C//DTD SVG 1.1//EN"
 "http://www.w3.org/Graphics/SVG/1.1/DTD/svg11.dtd">
<!-- Generated by graphviz version 2.43.0 (0)
 -->
<!-- Title: Epidemia Pages: 1 -->
<svg width="1399pt" height="1313pt"
 viewBox="0.00 0.00 1398.89 1313.35" xmlns="http://www.w3.org/2000/svg" xmlns:xlink="http://www.w3.org/1999/xlink">
<g id="graph0" class="graph" transform="scale(1 1) rotate(0) translate(4 1309.35)">
<title>Epidemia</title>
<polygon fill="white" stroke="transparent" points="-4,4 -4,-1309.35 1394.89,-1309.35 1394.89,4 -4,4"/>
<!-- 0 -->
<g id="node1" class="node">
<title>0</title>
<ellipse fill="blue" stroke="blue" cx="1071.42" cy="-139.21" rx="57.69" ry="18"/>
<text text-anchor="middle" x="1071.42" y="-135.51" font-family="Times,serif" font-size="14.00">Usuario_0</text>
</g>
<!-- 1 -->
<g id="node2" class="node">
<title>1</title>
<ellipse fill="orange" stroke="orange" cx="1301.98" cy="-456.55" rx="57.69" ry="18"/>
<text text-anchor="middle" x="1301.98" y="-452.85" font-family="Times,serif" font-size="14.00">Usuario_1</text>
</g>
<!-- 0&#45;&#45;1 -->
<g id="edge1" class="edge">
<title>0&#45;&#45;1</title>
<path fill="none" stroke="black" d="M1084.48,-157.18C1125.06,-213.04 1248.68,-383.19 1289.07,-438.78"/>
</g>
<!-- 2 -->
<g id="node3" class="node">
<title>2</title>
<ellipse fill="orange" stroke="orange" cx="1333.04" cy="-652.67" rx="57.69" ry="18"/>
<text text-anchor="middle" x="1333.04" y="-648.97" font-family="Times,serif" font-size="14.00">Usuario_2</text>
</g>
<!-- 0&#45;&#45;2 -->
<g id="edge2" class="edge">
<title>0&#45;&#45;2</title>
<path fill="none" stroke="black" d="M1080.58,-157.19C1121.05,-236.62 1283.64,-555.71 1323.96,-634.85"/>
</g>
<!-- 18 -->
<g id="node19" class="node">
<title>18</title>
<ellipse fill="blue" stroke="blue" cx="894.49" cy="-49.06" rx="63.89" ry="18"/>
<text text-anchor="middle" x="894.49" y="-45.36" font-family="Times,serif" font-size="14.00">Usuario_18</text>
</g>
<!-- 0&#45;&#45;18 -->
<g id="edge3" class="edge">
<title>0&#45;&#45;18</title>
<path fill="none" stroke="black" d="M1041.01,-123.71C1008.7,-107.25 957.9,-81.37 925.4,-64.81"/>
</g>
<!-- 19 -->
<g id="node20" class="node">
<title>19</title>
<ellipse fill="blue" stroke="blue" cx="1211.83" cy="-279.62" rx="63.89" ry="18"/>
<text text-anchor="middle" x="1211.83" y="-275.92" font-family="Times,serif" font-size="14.00">Usuario_19</text>
</g>
<!-- 0&#45;&#45;19 -->
<g id="edge4" class="edge">
<title>0&#45;&#45;19</title>
<path fill="none" stroke="black" d="M1088.64,-156.43C1115.59,-183.38 1167.44,-235.23 1194.47,-262.26"/>
</g>
<!-- 1&#45;&#45;2 -->
<g id="edge5" class="edge">
<title>1&#45;&#45;2</title>
<path fill="none" stroke="black" d="M1304.85,-474.65C1310.76,-512.01 1324.27,-597.29 1330.18,-634.62"/>
</g>
<!-- 3 -->
<g id="node4" class="node">
<title>3</title>
<ellipse fill="yellow" stroke="yellow" cx="1301.98" cy="-848.8" rx="57.69" ry="18"/>
<text text-anchor="middle" x="1301.98" y="-845.1" font-family="Times,serif" font-size="14.00">Usuario_3</text>
</g>
<!-- 1&#45;&#45;3 -->
<g id="edge6" class="edge">
<title>1&#45;&#45;3</title>
<path fill="none" stroke="black" d="M1301.98,-474.68C1301.98,-540.22 1301.98,-764.45 1301.98,-830.41"/>
</g>
<!-- 1&#45;&#45;19 -->
<g id="edge7" class="edge">
<title>1&#45;&#45;19</title>
<path fill="none" stroke="black" d="M1292.84,-438.61C1275.56,-404.7 1238.29,-331.56 1220.99,-297.61"/>
</g>
<!-- 2&#45;&#45;3 -->
<g id="edge8" class="edge">
<title>2&#45;&#45;3</title>
<path fill="none" stroke="black" d="M1330.18,-670.77C1324.26,-708.14 1310.75,-793.42 1304.84,-830.74"/>
</g>
<!-- 4 -->
<g id="node5" class="node">
<title>4</title>
<ellipse fill="green" stroke="green" cx="1211.83" cy="-1025.73" rx="57.69" ry="18"/>
<text text-anchor="middle" x="1211.83" y="-1022.03" font-family="Times,serif" font-size="14.00">Usuario_4</text>
</g>
<!-- 2&#45;&#45;4 -->
<g id="edge9" class="edge">
<title>2&#45;&#45;4</title>
<path fill="none" stroke="black" d="M1327.2,-670.67C1306.72,-733.69 1238.37,-944.06 1217.76,-1007.48"/>
</g>
<!-- 3&#45;&#45;4 -->
<g id="edge10" class="edge">
<title>3&#45;&#45;4</title>
<path fill="none" stroke="black" d="M1292.84,-866.74C1275.56,-900.65 1238.29,-973.79 1220.99,-1007.74"/>
</g>
<!-- 5 -->
<g id="node6" class="node">
<title>5</title>
<ellipse fill="green" stroke="green" cx="1071.42" cy="-1166.14" rx="57.69" ry="18"/>
<text text-anchor="middle" x="1071.42" y="-1162.44" font-family="Times,serif" font-size="14.00">Usuario_5</text>
</g>
<!-- 3&#45;&#45;5 -->
<g id="edge11" class="edge">
<title>3&#45;&#45;5</title>
<path fill="none" stroke="black" d="M1288.92,-866.77C1248.34,-922.62 1124.72,-1092.78 1084.33,-1148.36"/>
</g>
<!-- 4&#45;&#45;5 -->
<g id="edge12" class="edge">
<title>4&#45;&#45;5</title>
<path fill="none" stroke="black" d="M1194.61,-1042.94C1167.66,-1069.89 1115.81,-1121.74 1088.78,-1148.78"/>
</g>
<!-- 6 -->
<g id="node7" class="node">
<title>6</title>
<ellipse fill="green" stroke="green" cx="894.49" cy="-1256.28" rx="57.69" ry="18"/>
<text text-anchor="middle" x="894.49" y="-1252.58" font-family="Times,serif" font-size="14.00">Usuario_6</text>
</g>
<!-- 4&#45;&#45;6 -->
<g id="edge13" class="edge">
<title>4&#45;&#45;6</title>
<path fill="none" stroke="black" d="M1189.01,-1042.31C1130.6,-1084.74 976.18,-1196.93 917.54,-1239.54"/>
</g>
<!-- 5&#45;&#45;6 -->
<g id="edge14" class="edge">
<title>5&#45;&#45;6</title>
<path fill="none" stroke="black" d="M1041.01,-1181.63C1008.5,-1198.2 957.27,-1224.3 924.81,-1240.84"/>
</g>
<!-- 7 -->
<g id="node8" class="node">
<title>7</title>
<ellipse fill="green" stroke="green" cx="698.37" cy="-1287.35" rx="57.69" ry="18"/>
<text text-anchor="middle" x="698.37" y="-1283.65" font-family="Times,serif" font-size="14.00">Usuario_7</text>
</g>
<!-- 5&#45;&#45;7 -->
<g id="edge15" class="edge">
<title>5&#45;&#45;7</title>
<path fill="none" stroke="black" d="M1031.14,-1179.22C959.36,-1202.55 810.14,-1251.03 738.48,-1274.32"/>
</g>
<!-- 6&#45;&#45;7 -->
<g id="edge16" class="edge">
<title>6&#45;&#45;7</title>
<path fill="none" stroke="black" d="M842.71,-1264.49C814.11,-1269.02 778.7,-1274.63 750.1,-1279.15"/>
</g>
<!-- 8 -->
<g id="node9" class="node">
<title>8</title>
<ellipse fill="green" stroke="green" cx="502.24" cy="-1256.28" rx="57.69" ry="18"/>
<text text-anchor="middle" x="502.24" y="-1252.58" font-family="Times,serif" font-size="14.00">Usuario_8</text>
</g>
<!-- 6&#45;&#45;8 -->
<g id="edge17" class="edge">
<title>6&#45;&#45;8</title>
<path fill="none" stroke="black" d="M836.62,-1256.28C762.45,-1256.28 634.63,-1256.28 560.36,-1256.28"/>
</g>
<!-- 7&#45;&#45;8 -->
<g id="edge18" class="edge">
<title>7&#45;&#45;8</title>
<path fill="none" stroke="black" d="M646.58,-1279.15C617.98,-1274.62 582.57,-1269.01 553.98,-1264.48"/>
</g>
<!-- 9 -->
<g id="node10" class="node">
<title>9</title>
<ellipse fill="green" stroke="green" cx="325.32" cy="-1166.14" rx="57.69" ry="18"/>
<text text-anchor="middle" x="325.32" y="-1162.44" font-family="Times,serif" font-size="14.00">Usuario_9</text>
</g>
<!-- 7&#45;&#45;9 -->
<g id="edge19" class="edge">
<title>7&#45;&#45;9</title>
<path fill="none" stroke="black" d="M658.09,-1274.26C586.31,-1250.94 437.09,-1202.45 365.43,-1179.17"/>
</g>
<!-- 8&#45;&#45;9 -->
<g id="edge20" class="edge">
<title>8&#45;&#45;9</title>
<path fill="none" stroke="black" d="M471.83,-1240.79C439.32,-1224.23 388.1,-1198.12 355.63,-1181.58"/>
</g>
<!-- 10 -->
<g id="node11" class="node">
<title>10</title>
<ellipse fill="green" stroke="green" cx="184.91" cy="-1025.73" rx="63.89" ry="18"/>
<text text-anchor="middle" x="184.91" y="-1022.03" font-family="Times,serif" font-size="14.00">Usuario_10</text>
</g>
<!-- 8&#45;&#45;10 -->
<g id="edge21" class="edge">
<title>8&#45;&#45;10</title>
<path fill="none" stroke="black" d="M479.42,-1239.7C421.15,-1197.37 267.35,-1085.62 208.38,-1042.78"/>
</g>
<!-- 9&#45;&#45;10 -->
<g id="edge22" class="edge">
<title>9&#45;&#45;10</title>
<path fill="none" stroke="black" d="M308.1,-1148.92C281.15,-1121.97 229.3,-1070.12 202.26,-1043.08"/>
</g>
<!-- 11 -->
<g id="node12" class="node">
<title>11</title>
<ellipse fill="green" stroke="green" cx="94.76" cy="-848.8" rx="63.89" ry="18"/>
<text text-anchor="middle" x="94.76" y="-845.1" font-family="Times,serif" font-size="14.00">Usuario_11</text>
</g>
<!-- 9&#45;&#45;11 -->
<g id="edge23" class="edge">
<title>9&#45;&#45;11</title>
<path fill="none" stroke="black" d="M312.26,-1148.17C271.68,-1092.31 148.06,-922.16 107.67,-866.57"/>
</g>
<!-- 10&#45;&#45;11 -->
<g id="edge24" class="edge">
<title>10&#45;&#45;11</title>
<path fill="none" stroke="black" d="M175.77,-1007.79C158.49,-973.88 121.22,-900.73 103.92,-866.78"/>
</g>
<!-- 12 -->
<g id="node13" class="node">
<title>12</title>
<ellipse fill="green" stroke="green" cx="63.69" cy="-652.67" rx="63.89" ry="18"/>
<text text-anchor="middle" x="63.69" y="-648.97" font-family="Times,serif" font-size="14.00">Usuario_12</text>
</g>
<!-- 10&#45;&#45;12 -->
<g id="edge25" class="edge">
<title>10&#45;&#45;12</title>
<path fill="none" stroke="black" d="M179.06,-1007.73C158.58,-944.71 90.23,-734.34 69.62,-670.92"/>
</g>
<!-- 11&#45;&#45;12 -->
<g id="edge26" class="edge">
<title>11&#45;&#45;12</title>
<path fill="none" stroke="black" d="M91.89,-830.7C85.97,-793.34 72.47,-708.05 66.55,-670.73"/>
</g>
<!-- 13 -->
<g id="node14" class="node">
<title>13</title>
<ellipse fill="yellow" stroke="yellow" cx="94.76" cy="-456.55" rx="63.89" ry="18"/>
<text text-anchor="middle" x="94.76" y="-452.85" font-family="Times,serif" font-size="14.00">Usuario_13</text>
</g>
<!-- 11&#45;&#45;13 -->
<g id="edge27" class="edge">
<title>11&#45;&#45;13</title>
<path fill="none" stroke="black" d="M94.76,-830.67C94.76,-765.12 94.76,-540.9 94.76,-474.94"/>
</g>
<!-- 12&#45;&#45;13 -->
<g id="edge28" class="edge">
<title>12&#45;&#45;13</title>
<path fill="none" stroke="black" d="M66.56,-634.57C72.48,-597.21 85.99,-511.93 91.9,-474.6"/>
</g>
<!-- 14 -->
<g id="node15" class="node">
<title>14</title>
<ellipse fill="yellow" stroke="yellow" cx="184.91" cy="-279.62" rx="63.89" ry="18"/>
<text text-anchor="middle" x="184.91" y="-275.92" font-family="Times,serif" font-size="14.00">Usuario_14</text>
</g>
<!-- 12&#45;&#45;14 -->
<g id="edge29" class="edge">
<title>12&#45;&#45;14</title>
<path fill="none" stroke="black" d="M69.54,-634.68C90.02,-571.66 158.37,-361.29 178.98,-297.87"/>
</g>
<!-- 13&#45;&#45;14 -->
<g id="edge30" class="edge">
<title>13&#45;&#45;14</title>
<path fill="none" stroke="black" d="M103.9,-438.61C121.18,-404.7 158.45,-331.56 175.74,-297.61"/>
</g>
<!-- 15 -->
<g id="node16" class="node">
<title>15</title>
<ellipse fill="orange" stroke="orange" cx="325.32" cy="-139.21" rx="63.89" ry="18"/>
<text text-anchor="middle" x="325.32" y="-135.51" font-family="Times,serif" font-size="14.00">Usuario_15</text>
</g>
<!-- 13&#45;&#45;15 -->
<g id="edge31" class="edge">
<title>13&#45;&#45;15</title>
<path fill="none" stroke="black" d="M107.81,-438.58C148.39,-382.72 272.02,-212.57 312.4,-156.99"/>
</g>
<!-- 14&#45;&#45;15 -->
<g id="edge32" class="edge">
<title>14&#45;&#45;15</title>
<path fill="none" stroke="black" d="M202.41,-262.12C229.31,-235.22 280.56,-183.97 307.6,-156.93"/>
</g>
<!-- 16 -->
<g id="node17" class="node">
<title>16</title>
<ellipse fill="yellow" stroke="yellow" cx="502.24" cy="-49.06" rx="63.89" ry="18"/>
<text text-anchor="middle" x="502.24" y="-45.36" font-family="Times,serif" font-size="14.00">Usuario_16</text>
</g>
<!-- 14&#45;&#45;16 -->
<g id="edge33" class="edge">
<title>14&#45;&#45;16</title>
<path fill="none" stroke="black" d="M208.24,-262.67C266.93,-220.03 420.15,-108.71 478.87,-66.04"/>
</g>
<!-- 15&#45;&#45;16 -->
<g id="edge34" class="edge">
<title>15&#45;&#45;16</title>
<path fill="none" stroke="black" d="M356.54,-123.3C388.88,-106.82 439.11,-81.23 471.33,-64.81"/>
</g>
<!-- 17 -->
<g id="node18" class="node">
<title>17</title>
<ellipse fill="blue" stroke="blue" cx="698.37" cy="-18" rx="63.89" ry="18"/>
<text text-anchor="middle" x="698.37" y="-14.3" font-family="Times,serif" font-size="14.00">Usuario_17</text>
</g>
<!-- 15&#45;&#45;17 -->
<g id="edge35" class="edge">
<title>15&#45;&#45;17</title>
<path fill="none" stroke="black" d="M367.38,-125.54C439.22,-102.2 584.72,-54.93 656.45,-31.62"/>
</g>
<!-- 16&#45;&#45;17 -->
<g id="edge36" class="edge">
<title>16&#45;&#45;17</title>
<path fill="none" stroke="black" d="M557.92,-40.24C584.42,-36.05 616.03,-31.04 642.55,-26.84"/>
</g>
<!-- 16&#45;&#45;18 -->
<g id="edge37" class="edge">
<title>16&#45;&#45;18</title>
<path fill="none" stroke="black" d="M566.14,-49.06C639.08,-49.06 757.7,-49.06 830.63,-49.06"/>
</g>
<!-- 17&#45;&#45;18 -->
<g id="edge38" class="edge">
<title>17&#45;&#45;18</title>
<path fill="none" stroke="black" d="M754.05,-26.82C780.55,-31.02 812.16,-36.02 838.68,-40.22"/>
</g>
<!-- 17&#45;&#45;19 -->
<g id="edge39" class="edge">
<title>17&#45;&#45;19</title>
<path fill="none" stroke="black" d="M729.33,-33.78C820.83,-80.4 1089.28,-217.18 1180.83,-263.82"/>
</g>
<!-- 18&#45;&#45;19 -->
<g id="edge40" class="edge">
<title>18&#45;&#45;19</title>
<path fill="none" stroke="black" d="M917.83,-66.02C976.51,-108.65 1129.74,-219.98 1188.46,-262.64"/>
</g>
</g>
</svg>
