<?xml version="1.0" encoding="UTF-8" standalone="no"?>
<!DOCTYPE svg PUBLIC "-//W3C//DTD SVG 1.1//EN"
 "http://www.w3.org/Graphics/SVG/1.1/DTD/svg11.dtd">
<!-- Generated by graphviz version 2.43.0 (0)
 -->
<!-- Title: Epidemia Pages: 1 -->
<svg width="3309pt" height="3211pt"
 viewBox="0.00 0.00 3308.76 3211.11" xmlns="http://www.w3.org/2000/svg" xmlns:xlink="http://www.w3.org/1999/xlink">
<g id="graph0" class="graph" transform="scale(1 1) rotate(0) translate(4 3207.11)">
<title>Epidemia</title>
<polygon fill="white" stroke="transparent" points="-4,4 -4,-3207.11 3304.76,-3207.11 3304.76,4 -4,4"/>
<!-- 0 -->
<g id="node1" class="node">
<title>0</title>
<ellipse fill="blue" stroke="blue" cx="3224.55" cy="-1402.69" rx="57.69" ry="18"/>
<text text-anchor="middle" x="3224.55" y="-1398.99" font-family="Times,serif" font-size="14.00">Usuario_0</text>
</g>
<!-- 1 -->
<g id="node2" class="node">
<title>1</title>
<ellipse fill="orange" stroke="orange" cx="3187.22" cy="-1206.96" rx="57.69" ry="18"/>
<text text-anchor="middle" x="3187.22" y="-1203.26" font-family="Times,serif" font-size="14.00">Usuario_1</text>
</g>
<!-- 0&#45;&#45;1 -->
<g id="edge1" class="edge">
<title>0&#45;&#45;1</title>
<path fill="none" stroke="black" d="M3221.11,-1384.63C3213.99,-1347.34 3197.76,-1262.23 3190.65,-1224.98"/>
</g>
<!-- 2 -->
<g id="node3" class="node">
<title>2</title>
<ellipse fill="yellow" stroke="yellow" cx="3125.64" cy="-1017.46" rx="57.69" ry="18"/>
<text text-anchor="middle" x="3125.64" y="-1013.76" font-family="Times,serif" font-size="14.00">Usuario_2</text>
</g>
<!-- 0&#45;&#45;2 -->
<g id="edge2" class="edge">
<title>0&#45;&#45;2</title>
<path fill="none" stroke="black" d="M3219.91,-1384.63C3203.3,-1319.92 3146.87,-1100.13 3130.27,-1035.48"/>
</g>
<!-- 48 -->
<g id="node49" class="node">
<title>48</title>
<ellipse fill="green" stroke="green" cx="1947.69" cy="-42.97" rx="63.89" ry="18"/>
<text text-anchor="middle" x="1947.69" y="-39.27" font-family="Times,serif" font-size="14.00">Usuario_48</text>
</g>
<!-- 0&#45;&#45;48 -->
<g id="edge3" class="edge">
<title>0&#45;&#45;48</title>
<path fill="none" stroke="black" d="M3208.18,-1385.25C3070.19,-1238.31 2103.35,-208.73 1964.33,-60.69"/>
</g>
<!-- 49 -->
<g id="node50" class="node">
<title>49</title>
<ellipse fill="orange" stroke="orange" cx="1750.01" cy="-18" rx="63.89" ry="18"/>
<text text-anchor="middle" x="1750.01" y="-14.3" font-family="Times,serif" font-size="14.00">Usuario_49</text>
</g>
<!-- 0&#45;&#45;49 -->
<g id="edge4" class="edge">
<title>0&#45;&#45;49</title>
<path fill="none" stroke="black" d="M3206.18,-1385.43C3048.57,-1237.43 1926.59,-183.82 1768.5,-35.37"/>
</g>
<!-- 1&#45;&#45;2 -->
<g id="edge6" class="edge">
<title>1&#45;&#45;2</title>
<path fill="none" stroke="black" d="M3181.31,-1188.79C3169.54,-1152.57 3143.28,-1071.75 3131.53,-1035.57"/>
</g>
<!-- 3 -->
<g id="node4" class="node">
<title>3</title>
<ellipse fill="yellow" stroke="yellow" cx="3040.8" cy="-837.16" rx="57.69" ry="18"/>
<text text-anchor="middle" x="3040.8" y="-833.46" font-family="Times,serif" font-size="14.00">Usuario_3</text>
</g>
<!-- 1&#45;&#45;3 -->
<g id="edge7" class="edge">
<title>1&#45;&#45;3</title>
<path fill="none" stroke="black" d="M3180.05,-1188.87C3155.19,-1126.09 3072.79,-917.95 3047.95,-855.21"/>
</g>
<!-- 15 -->
<g id="node16" class="node">
<title>15</title>
<ellipse fill="yellow" stroke="yellow" cx="2140.69" cy="-92.53" rx="63.89" ry="18"/>
<text text-anchor="middle" x="2140.69" y="-88.83" font-family="Times,serif" font-size="14.00">Usuario_15</text>
</g>
<!-- 1&#45;&#45;15 -->
<g id="edge5" class="edge">
<title>1&#45;&#45;15</title>
<path fill="none" stroke="black" d="M3170.78,-1189.46C3048.3,-1059.03 2279.45,-240.28 2157.09,-109.99"/>
</g>
<!-- 47 -->
<g id="node48" class="node">
<title>47</title>
<ellipse fill="yellow" stroke="yellow" cx="1160.07" cy="-3110.58" rx="63.89" ry="18"/>
<text text-anchor="middle" x="1160.07" y="-3106.88" font-family="Times,serif" font-size="14.00">Usuario_47</text>
</g>
<!-- 1&#45;&#45;47 -->
<g id="edge8" class="edge">
<title>1&#45;&#45;47</title>
<path fill="none" stroke="black" d="M3168.76,-1224.29C2978.03,-1403.4 1369.53,-2913.88 1178.57,-3093.2"/>
</g>
<!-- 2&#45;&#45;3 -->
<g id="edge11" class="edge">
<title>2&#45;&#45;3</title>
<path fill="none" stroke="black" d="M3117.2,-999.51C3100.93,-964.95 3065.45,-889.54 3049.21,-855.04"/>
</g>
<!-- 2&#45;&#45;15 -->
<g id="edge12" class="edge">
<title>2&#45;&#45;15</title>
<path fill="none" stroke="black" d="M3107.28,-1000.21C2984.43,-884.85 2283.02,-226.18 2159.32,-110.02"/>
</g>
<!-- 21 -->
<g id="node22" class="node">
<title>21</title>
<ellipse fill="green" stroke="green" cx="3125.64" cy="-2185.65" rx="63.89" ry="18"/>
<text text-anchor="middle" x="3125.64" y="-2181.95" font-family="Times,serif" font-size="14.00">Usuario_21</text>
</g>
<!-- 2&#45;&#45;21 -->
<g id="edge10" class="edge">
<title>2&#45;&#45;21</title>
<path fill="none" stroke="black" d="M3125.64,-1035.81C3125.64,-1172.52 3125.64,-2030.77 3125.64,-2167.34"/>
</g>
<!-- 36 -->
<g id="node37" class="node">
<title>36</title>
<ellipse fill="green" stroke="green" cx="76.21" cy="-1402.69" rx="63.89" ry="18"/>
<text text-anchor="middle" x="76.21" y="-1398.99" font-family="Times,serif" font-size="14.00">Usuario_36</text>
</g>
<!-- 2&#45;&#45;36 -->
<g id="edge9" class="edge">
<title>2&#45;&#45;36</title>
<path fill="none" stroke="black" d="M3071.74,-1024.27C2700.03,-1071.22 520.04,-1346.62 134.47,-1395.33"/>
</g>
<!-- 4 -->
<g id="node5" class="node">
<title>4</title>
<ellipse fill="green" stroke="green" cx="2934.03" cy="-668.92" rx="57.69" ry="18"/>
<text text-anchor="middle" x="2934.03" y="-665.22" font-family="Times,serif" font-size="14.00">Usuario_4</text>
</g>
<!-- 3&#45;&#45;4 -->
<g id="edge14" class="edge">
<title>3&#45;&#45;4</title>
<path fill="none" stroke="black" d="M3029.58,-819.48C3009.07,-787.16 2965.78,-718.95 2945.27,-686.63"/>
</g>
<!-- 5 -->
<g id="node6" class="node">
<title>5</title>
<ellipse fill="green" stroke="green" cx="2807.02" cy="-515.39" rx="57.69" ry="18"/>
<text text-anchor="middle" x="2807.02" y="-511.69" font-family="Times,serif" font-size="14.00">Usuario_5</text>
</g>
<!-- 3&#45;&#45;5 -->
<g id="edge15" class="edge">
<title>3&#45;&#45;5</title>
<path fill="none" stroke="black" d="M3027.9,-819.4C2987.03,-763.15 2860.7,-589.28 2819.88,-533.1"/>
</g>
<!-- 8 -->
<g id="node9" class="node">
<title>8</title>
<ellipse fill="green" stroke="green" cx="1353.06" cy="-42.97" rx="57.69" ry="18"/>
<text text-anchor="middle" x="1353.06" y="-39.27" font-family="Times,serif" font-size="14.00">Usuario_8</text>
</g>
<!-- 3&#45;&#45;8 -->
<g id="edge13" class="edge">
<title>3&#45;&#45;8</title>
<path fill="none" stroke="black" d="M3008.59,-822.01C2796.11,-722.02 1597.73,-158.11 1385.27,-58.13"/>
</g>
<!-- 4&#45;&#45;5 -->
<g id="edge16" class="edge">
<title>4&#45;&#45;5</title>
<path fill="none" stroke="black" d="M2919.46,-651.31C2895.09,-621.85 2846.33,-562.91 2821.81,-533.27"/>
</g>
<!-- 6 -->
<g id="node7" class="node">
<title>6</title>
<ellipse fill="green" stroke="green" cx="1550.75" cy="-18" rx="57.69" ry="18"/>
<text text-anchor="middle" x="1550.75" y="-14.3" font-family="Times,serif" font-size="14.00">Usuario_6</text>
</g>
<!-- 4&#45;&#45;6 -->
<g id="edge17" class="edge">
<title>4&#45;&#45;6</title>
<path fill="none" stroke="black" d="M2901.88,-653.79C2714.87,-565.79 1769.26,-120.82 1582.73,-33.05"/>
</g>
<!-- 24 -->
<g id="node25" class="node">
<title>24</title>
<ellipse fill="green" stroke="green" cx="2661.77" cy="-378.99" rx="63.89" ry="18"/>
<text text-anchor="middle" x="2661.77" y="-375.29" font-family="Times,serif" font-size="14.00">Usuario_24</text>
</g>
<!-- 5&#45;&#45;24 -->
<g id="edge18" class="edge">
<title>5&#45;&#45;24</title>
<path fill="none" stroke="black" d="M2788.63,-498.12C2760.84,-472.02 2708.44,-422.82 2680.48,-396.56"/>
</g>
<!-- 7 -->
<g id="node8" class="node">
<title>7</title>
<ellipse fill="green" stroke="green" cx="1160.07" cy="-92.53" rx="57.69" ry="18"/>
<text text-anchor="middle" x="1160.07" y="-88.83" font-family="Times,serif" font-size="14.00">Usuario_7</text>
</g>
<!-- 6&#45;&#45;7 -->
<g id="edge19" class="edge">
<title>6&#45;&#45;7</title>
<path fill="none" stroke="black" d="M1501.27,-27.44C1426.22,-41.75 1284.44,-68.8 1209.45,-83.11"/>
</g>
<!-- 6&#45;&#45;8 -->
<g id="edge20" class="edge">
<title>6&#45;&#45;8</title>
<path fill="none" stroke="black" d="M1496.99,-24.79C1468.98,-28.33 1434.82,-32.65 1406.81,-36.18"/>
</g>
<!-- 7&#45;&#45;8 -->
<g id="edge21" class="edge">
<title>7&#45;&#45;8</title>
<path fill="none" stroke="black" d="M1204.83,-81.03C1235.9,-73.06 1277.12,-62.47 1308.21,-54.49"/>
</g>
<!-- 9 -->
<g id="node10" class="node">
<title>9</title>
<ellipse fill="green" stroke="green" cx="974.8" cy="-165.88" rx="57.69" ry="18"/>
<text text-anchor="middle" x="974.8" y="-162.18" font-family="Times,serif" font-size="14.00">Usuario_9</text>
</g>
<!-- 7&#45;&#45;9 -->
<g id="edge22" class="edge">
<title>7&#45;&#45;9</title>
<path fill="none" stroke="black" d="M1123.91,-106.84C1091.16,-119.81 1043.18,-138.81 1010.56,-151.72"/>
</g>
<!-- 8&#45;&#45;9 -->
<g id="edge24" class="edge">
<title>8&#45;&#45;9</title>
<path fill="none" stroke="black" d="M1312.94,-56.01C1240.31,-79.61 1087.83,-129.15 1015.08,-152.79"/>
</g>
<!-- 10 -->
<g id="node11" class="node">
<title>10</title>
<ellipse fill="green" stroke="green" cx="1750.01" cy="-3185.11" rx="63.89" ry="18"/>
<text text-anchor="middle" x="1750.01" y="-3181.41" font-family="Times,serif" font-size="14.00">Usuario_10</text>
</g>
<!-- 8&#45;&#45;10 -->
<g id="edge25" class="edge">
<title>8&#45;&#45;10</title>
<path fill="none" stroke="black" d="M1355.35,-61.03C1386.05,-304.05 1716.75,-2921.87 1747.69,-3166.76"/>
</g>
<!-- 8&#45;&#45;49 -->
<g id="edge23" class="edge">
<title>8&#45;&#45;49</title>
<path fill="none" stroke="black" d="M1409.94,-39.4C1483.57,-34.76 1611.47,-26.72 1687.68,-21.92"/>
</g>
<!-- 9&#45;&#45;15 -->
<g id="edge27" class="edge">
<title>9&#45;&#45;15</title>
<path fill="none" stroke="black" d="M1031.82,-162.29C1227.95,-149.95 1873.91,-109.31 2078.18,-96.46"/>
</g>
<!-- 29 -->
<g id="node30" class="node">
<title>29</title>
<ellipse fill="green" stroke="green" cx="638.99" cy="-378.99" rx="63.89" ry="18"/>
<text text-anchor="middle" x="638.99" y="-375.29" font-family="Times,serif" font-size="14.00">Usuario_29</text>
</g>
<!-- 9&#45;&#45;29 -->
<g id="edge26" class="edge">
<title>9&#45;&#45;29</title>
<path fill="none" stroke="black" d="M949.29,-182.07C886.99,-221.61 727.66,-322.72 664.93,-362.53"/>
</g>
<!-- 11 -->
<g id="node12" class="node">
<title>11</title>
<ellipse fill="green" stroke="green" cx="1947.69" cy="-3160.13" rx="63.89" ry="18"/>
<text text-anchor="middle" x="1947.69" y="-3156.43" font-family="Times,serif" font-size="14.00">Usuario_11</text>
</g>
<!-- 10&#45;&#45;11 -->
<g id="edge29" class="edge">
<title>10&#45;&#45;11</title>
<path fill="none" stroke="black" d="M1808.25,-3177.75C1833.88,-3174.51 1863.91,-3170.72 1889.53,-3167.48"/>
</g>
<!-- 12 -->
<g id="node13" class="node">
<title>12</title>
<ellipse fill="yellow" stroke="yellow" cx="1550.75" cy="-3185.11" rx="63.89" ry="18"/>
<text text-anchor="middle" x="1550.75" y="-3181.41" font-family="Times,serif" font-size="14.00">Usuario_12</text>
</g>
<!-- 10&#45;&#45;12 -->
<g id="edge30" class="edge">
<title>10&#45;&#45;12</title>
<path fill="none" stroke="black" d="M1686.14,-3185.11C1663.26,-3185.11 1637.48,-3185.11 1614.6,-3185.11"/>
</g>
<!-- 31 -->
<g id="node32" class="node">
<title>31</title>
<ellipse fill="green" stroke="green" cx="366.72" cy="-668.92" rx="63.89" ry="18"/>
<text text-anchor="middle" x="366.72" y="-665.22" font-family="Times,serif" font-size="14.00">Usuario_31</text>
</g>
<!-- 10&#45;&#45;31 -->
<g id="edge28" class="edge">
<title>10&#45;&#45;31</title>
<path fill="none" stroke="black" d="M1740.06,-3167.01C1622.15,-2952.54 494.16,-900.72 376.61,-686.91"/>
</g>
<!-- 11&#45;&#45;12 -->
<g id="edge32" class="edge">
<title>11&#45;&#45;12</title>
<path fill="none" stroke="black" d="M1885.24,-3164.06C1810.89,-3168.74 1687.5,-3176.5 1613.17,-3181.18"/>
</g>
<!-- 13 -->
<g id="node14" class="node">
<title>13</title>
<ellipse fill="green" stroke="green" cx="2500.57" cy="-2941.24" rx="63.89" ry="18"/>
<text text-anchor="middle" x="2500.57" y="-2937.54" font-family="Times,serif" font-size="14.00">Usuario_13</text>
</g>
<!-- 11&#45;&#45;13 -->
<g id="edge33" class="edge">
<title>11&#45;&#45;13</title>
<path fill="none" stroke="black" d="M1984.83,-3145.43C2085.43,-3105.6 2362.4,-2995.94 2463.23,-2956.02"/>
</g>
<!-- 16 -->
<g id="node17" class="node">
<title>16</title>
<ellipse fill="green" stroke="green" cx="2140.69" cy="-3110.58" rx="63.89" ry="18"/>
<text text-anchor="middle" x="2140.69" y="-3106.88" font-family="Times,serif" font-size="14.00">Usuario_16</text>
</g>
<!-- 11&#45;&#45;16 -->
<g id="edge31" class="edge">
<title>11&#45;&#45;16</title>
<path fill="none" stroke="black" d="M1994.91,-3148.01C2024.81,-3140.33 2063.36,-3130.44 2093.3,-3122.75"/>
</g>
<!-- 39 -->
<g id="node40" class="node">
<title>39</title>
<ellipse fill="green" stroke="green" cx="259.96" cy="-2365.95" rx="63.89" ry="18"/>
<text text-anchor="middle" x="259.96" y="-2362.25" font-family="Times,serif" font-size="14.00">Usuario_39</text>
</g>
<!-- 12&#45;&#45;39 -->
<g id="edge35" class="edge">
<title>12&#45;&#45;39</title>
<path fill="none" stroke="black" d="M1524.67,-3168.56C1358.76,-3063.26 451.99,-2487.81 286.04,-2382.5"/>
</g>
<!-- 12&#45;&#45;47 -->
<g id="edge34" class="edge">
<title>12&#45;&#45;47</title>
<path fill="none" stroke="black" d="M1497.65,-3174.98C1422.96,-3160.73 1287.67,-3134.92 1213.05,-3120.69"/>
</g>
<!-- 14 -->
<g id="node15" class="node">
<title>14</title>
<ellipse fill="green" stroke="green" cx="2325.96" cy="-3037.23" rx="63.89" ry="18"/>
<text text-anchor="middle" x="2325.96" y="-3033.53" font-family="Times,serif" font-size="14.00">Usuario_14</text>
</g>
<!-- 13&#45;&#45;14 -->
<g id="edge36" class="edge">
<title>13&#45;&#45;14</title>
<path fill="none" stroke="black" d="M2471.34,-2957.3C2439.11,-2975.02 2387.55,-3003.37 2355.28,-3021.11"/>
</g>
<!-- 13&#45;&#45;21 -->
<g id="edge37" class="edge">
<title>13&#45;&#45;21</title>
<path fill="none" stroke="black" d="M2515.1,-2923.67C2599.51,-2821.63 3025.98,-2306.13 3110.91,-2203.45"/>
</g>
<!-- 14&#45;&#45;15 -->
<g id="edge38" class="edge">
<title>14&#45;&#45;15</title>
<path fill="none" stroke="black" d="M2324.82,-3019.19C2310.09,-2785.01 2156.64,-346 2141.84,-110.74"/>
</g>
<!-- 14&#45;&#45;16 -->
<g id="edge39" class="edge">
<title>14&#45;&#45;16</title>
<path fill="none" stroke="black" d="M2288.91,-3051.9C2256.7,-3064.65 2210.27,-3083.03 2177.99,-3095.81"/>
</g>
<!-- 15&#45;&#45;16 -->
<g id="edge40" class="edge">
<title>15&#45;&#45;16</title>
<path fill="none" stroke="black" d="M2140.69,-110.63C2140.69,-348.45 2140.69,-2853.11 2140.69,-3092.26"/>
</g>
<!-- 15&#45;&#45;48 -->
<g id="edge41" class="edge">
<title>15&#45;&#45;48</title>
<path fill="none" stroke="black" d="M2093.48,-80.4C2063.57,-72.73 2025.03,-62.83 1995.09,-55.14"/>
</g>
<!-- 18 -->
<g id="node19" class="node">
<title>18</title>
<ellipse fill="green" stroke="green" cx="2807.02" cy="-2687.71" rx="63.89" ry="18"/>
<text text-anchor="middle" x="2807.02" y="-2684.01" font-family="Times,serif" font-size="14.00">Usuario_18</text>
</g>
<!-- 16&#45;&#45;18 -->
<g id="edge43" class="edge">
<title>16&#45;&#45;18</title>
<path fill="none" stroke="black" d="M2166.81,-3094C2273.41,-3026.36 2674.82,-2771.61 2781.08,-2704.18"/>
</g>
<!-- 16&#45;&#45;48 -->
<g id="edge42" class="edge">
<title>16&#45;&#45;48</title>
<path fill="none" stroke="black" d="M2139.56,-3092.57C2124.49,-2853.07 1964.01,-302.32 1948.84,-61.24"/>
</g>
<!-- 17 -->
<g id="node18" class="node">
<title>17</title>
<ellipse fill="green" stroke="green" cx="3040.8" cy="-2365.95" rx="63.89" ry="18"/>
<text text-anchor="middle" x="3040.8" y="-2362.25" font-family="Times,serif" font-size="14.00">Usuario_17</text>
</g>
<!-- 17&#45;&#45;18 -->
<g id="edge45" class="edge">
<title>17&#45;&#45;18</title>
<path fill="none" stroke="black" d="M3027.9,-2383.7C2987.03,-2439.96 2860.7,-2613.83 2819.88,-2670.01"/>
</g>
<!-- 19 -->
<g id="node20" class="node">
<title>19</title>
<ellipse fill="green" stroke="green" cx="2934.03" cy="-2534.18" rx="63.89" ry="18"/>
<text text-anchor="middle" x="2934.03" y="-2530.48" font-family="Times,serif" font-size="14.00">Usuario_19</text>
</g>
<!-- 17&#45;&#45;19 -->
<g id="edge46" class="edge">
<title>17&#45;&#45;19</title>
<path fill="none" stroke="black" d="M3029.38,-2383.95C3008.83,-2416.33 2965.87,-2484.02 2945.38,-2516.31"/>
</g>
<!-- 17&#45;&#45;21 -->
<g id="edge44" class="edge">
<title>17&#45;&#45;21</title>
<path fill="none" stroke="black" d="M3049.25,-2348C3065.51,-2313.44 3101,-2238.03 3117.23,-2203.53"/>
</g>
<!-- 18&#45;&#45;19 -->
<g id="edge47" class="edge">
<title>18&#45;&#45;19</title>
<path fill="none" stroke="black" d="M2821.59,-2670.1C2845.96,-2640.64 2894.73,-2581.7 2919.24,-2552.06"/>
</g>
<!-- 20 -->
<g id="node21" class="node">
<title>20</title>
<ellipse fill="green" stroke="green" cx="2661.77" cy="-2824.12" rx="63.89" ry="18"/>
<text text-anchor="middle" x="2661.77" y="-2820.42" font-family="Times,serif" font-size="14.00">Usuario_20</text>
</g>
<!-- 19&#45;&#45;20 -->
<g id="edge48" class="edge">
<title>19&#45;&#45;20</title>
<path fill="none" stroke="black" d="M2917.41,-2551.88C2868.69,-2603.77 2726.62,-2755.06 2678.17,-2806.65"/>
</g>
<!-- 19&#45;&#45;21 -->
<g id="edge49" class="edge">
<title>19&#45;&#45;21</title>
<path fill="none" stroke="black" d="M2944.07,-2515.94C2977.18,-2455.71 3082.74,-2263.68 3115.71,-2203.72"/>
</g>
<!-- 20&#45;&#45;21 -->
<g id="edge51" class="edge">
<title>20&#45;&#45;21</title>
<path fill="none" stroke="black" d="M2674.66,-2806.37C2741.31,-2714.64 3046.31,-2294.84 3112.81,-2203.31"/>
</g>
<!-- 34 -->
<g id="node35" class="node">
<title>34</title>
<ellipse fill="green" stroke="green" cx="113.54" cy="-1206.96" rx="63.89" ry="18"/>
<text text-anchor="middle" x="113.54" y="-1203.26" font-family="Times,serif" font-size="14.00">Usuario_34</text>
</g>
<!-- 20&#45;&#45;34 -->
<g id="edge52" class="edge">
<title>20&#45;&#45;34</title>
<path fill="none" stroke="black" d="M2635.72,-2807.58C2384.26,-2648 391.65,-1383.46 139.7,-1223.56"/>
</g>
<!-- 45 -->
<g id="node46" class="node">
<title>45</title>
<ellipse fill="green" stroke="green" cx="1353.06" cy="-3160.13" rx="63.89" ry="18"/>
<text text-anchor="middle" x="1353.06" y="-3156.43" font-family="Times,serif" font-size="14.00">Usuario_45</text>
</g>
<!-- 20&#45;&#45;45 -->
<g id="edge50" class="edge">
<title>20&#45;&#45;45</title>
<path fill="none" stroke="black" d="M2614.42,-2836.27C2410.04,-2888.75 1604.61,-3095.55 1400.35,-3147.99"/>
</g>
<!-- 22 -->
<g id="node23" class="node">
<title>22</title>
<ellipse fill="green" stroke="green" cx="3237.06" cy="-1601.55" rx="63.89" ry="18"/>
<text text-anchor="middle" x="3237.06" y="-1597.85" font-family="Times,serif" font-size="14.00">Usuario_22</text>
</g>
<!-- 21&#45;&#45;22 -->
<g id="edge53" class="edge">
<title>21&#45;&#45;22</title>
<path fill="none" stroke="black" d="M3129.1,-2167.53C3145.68,-2080.59 3216.98,-1706.86 3233.59,-1619.75"/>
</g>
<!-- 23 -->
<g id="node24" class="node">
<title>23</title>
<ellipse fill="green" stroke="green" cx="3187.22" cy="-1996.15" rx="63.89" ry="18"/>
<text text-anchor="middle" x="3187.22" y="-1992.45" font-family="Times,serif" font-size="14.00">Usuario_23</text>
</g>
<!-- 21&#45;&#45;23 -->
<g id="edge54" class="edge">
<title>21&#45;&#45;23</title>
<path fill="none" stroke="black" d="M3131.55,-2167.48C3143.31,-2131.26 3169.57,-2050.44 3181.33,-2014.26"/>
</g>
<!-- 22&#45;&#45;23 -->
<g id="edge55" class="edge">
<title>22&#45;&#45;23</title>
<path fill="none" stroke="black" d="M3234.76,-1619.79C3226.41,-1685.88 3197.8,-1912.33 3189.5,-1978.1"/>
</g>
<!-- 25 -->
<g id="node26" class="node">
<title>25</title>
<ellipse fill="green" stroke="green" cx="3224.55" cy="-1800.42" rx="63.89" ry="18"/>
<text text-anchor="middle" x="3224.55" y="-1796.72" font-family="Times,serif" font-size="14.00">Usuario_25</text>
</g>
<!-- 22&#45;&#45;25 -->
<g id="edge56" class="edge">
<title>22&#45;&#45;25</title>
<path fill="none" stroke="black" d="M3235.93,-1619.55C3233.56,-1657.32 3228.07,-1744.46 3225.69,-1782.32"/>
</g>
<!-- 23&#45;&#45;25 -->
<g id="edge59" class="edge">
<title>23&#45;&#45;25</title>
<path fill="none" stroke="black" d="M3190.66,-1978.08C3197.77,-1940.8 3214.01,-1855.69 3221.12,-1818.44"/>
</g>
<!-- 23&#45;&#45;34 -->
<g id="edge58" class="edge">
<title>23&#45;&#45;34</title>
<path fill="none" stroke="black" d="M3139.86,-1983.99C2782.84,-1892.32 518.08,-1310.83 160.94,-1219.13"/>
</g>
<!-- 35 -->
<g id="node36" class="node">
<title>35</title>
<ellipse fill="green" stroke="green" cx="63.69" cy="-1601.55" rx="63.89" ry="18"/>
<text text-anchor="middle" x="63.69" y="-1597.85" font-family="Times,serif" font-size="14.00">Usuario_35</text>
</g>
<!-- 23&#45;&#45;35 -->
<g id="edge57" class="edge">
<title>23&#45;&#45;35</title>
<path fill="none" stroke="black" d="M3128.98,-1988.79C2739.17,-1939.55 512.66,-1658.27 122.16,-1608.94"/>
</g>
<!-- 26 -->
<g id="node27" class="node">
<title>26</title>
<ellipse fill="green" stroke="green" cx="2500.57" cy="-261.87" rx="63.89" ry="18"/>
<text text-anchor="middle" x="2500.57" y="-258.17" font-family="Times,serif" font-size="14.00">Usuario_26</text>
</g>
<!-- 24&#45;&#45;26 -->
<g id="edge61" class="edge">
<title>24&#45;&#45;26</title>
<path fill="none" stroke="black" d="M2638.67,-362.21C2608.12,-340.01 2554.55,-301.09 2523.88,-278.81"/>
</g>
<!-- 41 -->
<g id="node42" class="node">
<title>41</title>
<ellipse fill="green" stroke="green" cx="366.72" cy="-2534.18" rx="63.89" ry="18"/>
<text text-anchor="middle" x="366.72" y="-2530.48" font-family="Times,serif" font-size="14.00">Usuario_41</text>
</g>
<!-- 24&#45;&#45;41 -->
<g id="edge60" class="edge">
<title>24&#45;&#45;41</title>
<path fill="none" stroke="black" d="M2643.3,-396.34C2438.19,-588.95 590.28,-2324.25 385.19,-2516.84"/>
</g>
<!-- 25&#45;&#45;26 -->
<g id="edge62" class="edge">
<title>25&#45;&#45;26</title>
<path fill="none" stroke="black" d="M3216.04,-1782.34C3140.44,-1621.68 2584.71,-440.68 2509.08,-279.96"/>
</g>
<!-- 27 -->
<g id="node28" class="node">
<title>27</title>
<ellipse fill="green" stroke="green" cx="800.19" cy="-261.87" rx="63.89" ry="18"/>
<text text-anchor="middle" x="800.19" y="-258.17" font-family="Times,serif" font-size="14.00">Usuario_27</text>
</g>
<!-- 25&#45;&#45;27 -->
<g id="edge63" class="edge">
<title>25&#45;&#45;27</title>
<path fill="none" stroke="black" d="M3198.56,-1783.92C2954.59,-1629.09 1069.89,-433.03 826.13,-278.34"/>
</g>
<!-- 26&#45;&#45;27 -->
<g id="edge64" class="edge">
<title>26&#45;&#45;27</title>
<path fill="none" stroke="black" d="M2436.76,-261.87C2168.35,-261.87 1132.49,-261.87 864.03,-261.87"/>
</g>
<!-- 28 -->
<g id="node29" class="node">
<title>28</title>
<ellipse fill="green" stroke="green" cx="2325.96" cy="-165.88" rx="63.89" ry="18"/>
<text text-anchor="middle" x="2325.96" y="-162.18" font-family="Times,serif" font-size="14.00">Usuario_28</text>
</g>
<!-- 26&#45;&#45;28 -->
<g id="edge65" class="edge">
<title>26&#45;&#45;28</title>
<path fill="none" stroke="black" d="M2471.34,-245.8C2439.11,-228.08 2387.55,-199.74 2355.28,-182"/>
</g>
<!-- 27&#45;&#45;29 -->
<g id="edge66" class="edge">
<title>27&#45;&#45;29</title>
<path fill="none" stroke="black" d="M777.09,-278.65C746.54,-300.85 692.97,-339.77 662.3,-362.05"/>
</g>
<!-- 30 -->
<g id="node31" class="node">
<title>30</title>
<ellipse fill="green" stroke="green" cx="493.74" cy="-515.39" rx="63.89" ry="18"/>
<text text-anchor="middle" x="493.74" y="-511.69" font-family="Times,serif" font-size="14.00">Usuario_30</text>
</g>
<!-- 28&#45;&#45;30 -->
<g id="edge67" class="edge">
<title>28&#45;&#45;30</title>
<path fill="none" stroke="black" d="M2273.1,-175.96C2006.72,-226.78 813.69,-454.36 546.81,-505.27"/>
</g>
<!-- 29&#45;&#45;30 -->
<g id="edge69" class="edge">
<title>29&#45;&#45;30</title>
<path fill="none" stroke="black" d="M620.59,-396.27C592.8,-422.36 540.41,-471.56 512.44,-497.83"/>
</g>
<!-- 29&#45;&#45;34 -->
<g id="edge68" class="edge">
<title>29&#45;&#45;34</title>
<path fill="none" stroke="black" d="M627.52,-397.06C558.04,-506.55 193.91,-1080.32 124.86,-1189.14"/>
</g>
<!-- 30&#45;&#45;31 -->
<g id="edge70" class="edge">
<title>30&#45;&#45;31</title>
<path fill="none" stroke="black" d="M479.17,-533.01C454.8,-562.46 406.03,-621.41 381.52,-651.04"/>
</g>
<!-- 32 -->
<g id="node33" class="node">
<title>32</title>
<ellipse fill="green" stroke="green" cx="259.96" cy="-837.16" rx="63.89" ry="18"/>
<text text-anchor="middle" x="259.96" y="-833.46" font-family="Times,serif" font-size="14.00">Usuario_32</text>
</g>
<!-- 30&#45;&#45;32 -->
<g id="edge71" class="edge">
<title>30&#45;&#45;32</title>
<path fill="none" stroke="black" d="M480.83,-533.15C439.96,-589.41 313.64,-763.28 272.82,-819.46"/>
</g>
<!-- 31&#45;&#45;32 -->
<g id="edge72" class="edge">
<title>31&#45;&#45;32</title>
<path fill="none" stroke="black" d="M355.3,-686.93C334.75,-719.31 291.79,-787 271.3,-819.29"/>
</g>
<!-- 33 -->
<g id="node34" class="node">
<title>33</title>
<ellipse fill="green" stroke="green" cx="175.12" cy="-1017.46" rx="63.89" ry="18"/>
<text text-anchor="middle" x="175.12" y="-1013.76" font-family="Times,serif" font-size="14.00">Usuario_33</text>
</g>
<!-- 31&#45;&#45;33 -->
<g id="edge73" class="edge">
<title>31&#45;&#45;33</title>
<path fill="none" stroke="black" d="M356.69,-687.17C323.58,-747.4 218.01,-939.43 185.05,-999.39"/>
</g>
<!-- 32&#45;&#45;33 -->
<g id="edge74" class="edge">
<title>32&#45;&#45;33</title>
<path fill="none" stroke="black" d="M251.51,-855.11C235.25,-889.67 199.76,-965.08 183.53,-999.58"/>
</g>
<!-- 32&#45;&#45;34 -->
<g id="edge75" class="edge">
<title>32&#45;&#45;34</title>
<path fill="none" stroke="black" d="M252.8,-855.25C227.94,-918.04 145.53,-1126.17 120.69,-1188.91"/>
</g>
<!-- 33&#45;&#45;34 -->
<g id="edge76" class="edge">
<title>33&#45;&#45;34</title>
<path fill="none" stroke="black" d="M169.21,-1035.63C157.44,-1071.85 131.18,-1152.67 119.43,-1188.85"/>
</g>
<!-- 33&#45;&#45;35 -->
<g id="edge77" class="edge">
<title>33&#45;&#45;35</title>
<path fill="none" stroke="black" d="M171.66,-1035.58C155.08,-1122.52 83.78,-1496.25 67.17,-1583.36"/>
</g>
<!-- 34&#45;&#45;35 -->
<g id="edge78" class="edge">
<title>34&#45;&#45;35</title>
<path fill="none" stroke="black" d="M111.24,-1225.2C102.89,-1291.29 74.28,-1517.74 65.97,-1583.51"/>
</g>
<!-- 34&#45;&#45;36 -->
<g id="edge79" class="edge">
<title>34&#45;&#45;36</title>
<path fill="none" stroke="black" d="M110.1,-1225.02C102.98,-1262.31 86.75,-1347.42 79.64,-1384.67"/>
</g>
<!-- 37 -->
<g id="node38" class="node">
<title>37</title>
<ellipse fill="green" stroke="green" cx="76.21" cy="-1800.42" rx="63.89" ry="18"/>
<text text-anchor="middle" x="76.21" y="-1796.72" font-family="Times,serif" font-size="14.00">Usuario_37</text>
</g>
<!-- 35&#45;&#45;37 -->
<g id="edge80" class="edge">
<title>35&#45;&#45;37</title>
<path fill="none" stroke="black" d="M64.83,-1619.55C67.2,-1657.32 72.69,-1744.46 75.07,-1782.32"/>
</g>
<!-- 36&#45;&#45;37 -->
<g id="edge81" class="edge">
<title>36&#45;&#45;37</title>
<path fill="none" stroke="black" d="M76.21,-1420.81C76.21,-1487.07 76.21,-1715.76 76.21,-1782.19"/>
</g>
<!-- 38 -->
<g id="node39" class="node">
<title>38</title>
<ellipse fill="green" stroke="green" cx="113.54" cy="-1996.15" rx="63.89" ry="18"/>
<text text-anchor="middle" x="113.54" y="-1992.45" font-family="Times,serif" font-size="14.00">Usuario_38</text>
</g>
<!-- 37&#45;&#45;38 -->
<g id="edge83" class="edge">
<title>37&#45;&#45;38</title>
<path fill="none" stroke="black" d="M79.65,-1818.48C86.76,-1855.77 103,-1940.88 110.11,-1978.13"/>
</g>
<!-- 37&#45;&#45;39 -->
<g id="edge84" class="edge">
<title>37&#45;&#45;39</title>
<path fill="none" stroke="black" d="M82.11,-1818.59C109.79,-1903.77 226.45,-2262.81 254.07,-2347.84"/>
</g>
<!-- 37&#45;&#45;47 -->
<g id="edge82" class="edge">
<title>37&#45;&#45;47</title>
<path fill="none" stroke="black" d="M90.71,-1817.95C209.78,-1961.88 1024.9,-2947.19 1145.24,-3092.66"/>
</g>
<!-- 38&#45;&#45;39 -->
<g id="edge85" class="edge">
<title>38&#45;&#45;39</title>
<path fill="none" stroke="black" d="M120.7,-2014.23C145.56,-2077.02 227.97,-2285.16 252.81,-2347.89"/>
</g>
<!-- 40 -->
<g id="node41" class="node">
<title>40</title>
<ellipse fill="green" stroke="green" cx="175.12" cy="-2185.65" rx="63.89" ry="18"/>
<text text-anchor="middle" x="175.12" y="-2181.95" font-family="Times,serif" font-size="14.00">Usuario_40</text>
</g>
<!-- 38&#45;&#45;40 -->
<g id="edge86" class="edge">
<title>38&#45;&#45;40</title>
<path fill="none" stroke="black" d="M119.45,-2014.32C131.22,-2050.54 157.48,-2131.36 169.23,-2167.54"/>
</g>
<!-- 39&#45;&#45;40 -->
<g id="edge87" class="edge">
<title>39&#45;&#45;40</title>
<path fill="none" stroke="black" d="M251.51,-2348C235.25,-2313.44 199.76,-2238.03 183.53,-2203.53"/>
</g>
<!-- 39&#45;&#45;41 -->
<g id="edge88" class="edge">
<title>39&#45;&#45;41</title>
<path fill="none" stroke="black" d="M271.38,-2383.95C291.93,-2416.33 334.89,-2484.02 355.38,-2516.31"/>
</g>
<!-- 40&#45;&#45;41 -->
<g id="edge89" class="edge">
<title>40&#45;&#45;41</title>
<path fill="none" stroke="black" d="M185.15,-2203.9C218.26,-2264.13 323.83,-2456.15 356.79,-2516.12"/>
</g>
<!-- 42 -->
<g id="node43" class="node">
<title>42</title>
<ellipse fill="green" stroke="green" cx="493.74" cy="-2687.71" rx="63.89" ry="18"/>
<text text-anchor="middle" x="493.74" y="-2684.01" font-family="Times,serif" font-size="14.00">Usuario_42</text>
</g>
<!-- 41&#45;&#45;42 -->
<g id="edge90" class="edge">
<title>41&#45;&#45;42</title>
<path fill="none" stroke="black" d="M381.29,-2551.8C405.66,-2581.25 454.43,-2640.2 478.94,-2669.83"/>
</g>
<!-- 43 -->
<g id="node44" class="node">
<title>43</title>
<ellipse fill="green" stroke="green" cx="638.99" cy="-2824.12" rx="63.89" ry="18"/>
<text text-anchor="middle" x="638.99" y="-2820.42" font-family="Times,serif" font-size="14.00">Usuario_43</text>
</g>
<!-- 41&#45;&#45;43 -->
<g id="edge91" class="edge">
<title>41&#45;&#45;43</title>
<path fill="none" stroke="black" d="M383.35,-2551.88C432.07,-2603.77 574.14,-2755.06 622.58,-2806.65"/>
</g>
<!-- 44 -->
<g id="node45" class="node">
<title>44</title>
<ellipse fill="green" stroke="green" cx="800.19" cy="-2941.24" rx="63.89" ry="18"/>
<text text-anchor="middle" x="800.19" y="-2937.54" font-family="Times,serif" font-size="14.00">Usuario_44</text>
</g>
<!-- 42&#45;&#45;44 -->
<g id="edge92" class="edge">
<title>42&#45;&#45;44</title>
<path fill="none" stroke="black" d="M514.8,-2705.14C570.92,-2751.57 723.56,-2877.84 779.38,-2924.02"/>
</g>
<!-- 43&#45;&#45;44 -->
<g id="edge93" class="edge">
<title>43&#45;&#45;44</title>
<path fill="none" stroke="black" d="M662.08,-2840.9C692.64,-2863.1 746.21,-2902.02 776.88,-2924.3"/>
</g>
<!-- 46 -->
<g id="node47" class="node">
<title>46</title>
<ellipse fill="green" stroke="green" cx="974.8" cy="-3037.23" rx="63.89" ry="18"/>
<text text-anchor="middle" x="974.8" y="-3033.53" font-family="Times,serif" font-size="14.00">Usuario_46</text>
</g>
<!-- 44&#45;&#45;46 -->
<g id="edge94" class="edge">
<title>44&#45;&#45;46</title>
<path fill="none" stroke="black" d="M829.42,-2957.3C861.65,-2975.02 913.21,-3003.37 945.48,-3021.11"/>
</g>
<!-- 45&#45;&#45;46 -->
<g id="edge95" class="edge">
<title>45&#45;&#45;46</title>
<path fill="none" stroke="black" d="M1311.14,-3146.51C1238.33,-3122.86 1089.36,-3074.45 1016.63,-3050.82"/>
</g>
<!-- 45&#45;&#45;47 -->
<g id="edge96" class="edge">
<title>45&#45;&#45;47</title>
<path fill="none" stroke="black" d="M1305.85,-3148.01C1275.94,-3140.33 1237.4,-3130.44 1207.46,-3122.75"/>
</g>
<!-- 46&#45;&#45;47 -->
<g id="edge97" class="edge">
<title>46&#45;&#45;47</title>
<path fill="none" stroke="black" d="M1011.85,-3051.9C1044.05,-3064.65 1090.49,-3083.03 1122.77,-3095.81"/>
</g>
<!-- 46&#45;&#45;48 -->
<g id="edge98" class="edge">
<title>46&#45;&#45;48</title>
<path fill="none" stroke="black" d="M980.64,-3019.27C1057.3,-2783.32 1864.7,-298.42 1941.79,-61.15"/>
</g>
<!-- 47&#45;&#45;49 -->
<g id="edge99" class="edge">
<title>47&#45;&#45;49</title>
<path fill="none" stroke="black" d="M1163.53,-3092.42C1209.61,-2850.85 1700.63,-276.82 1746.57,-36.04"/>
</g>
<!-- 48&#45;&#45;49 -->
<g id="edge100" class="edge">
<title>48&#45;&#45;49</title>
<path fill="none" stroke="black" d="M1889.45,-35.62C1863.83,-32.38 1833.79,-28.58 1808.18,-25.35"/>
</g>
</g>
</svg>
