<?xml version="1.0" encoding="UTF-8" standalone="no"?>
<!DOCTYPE svg PUBLIC "-//W3C//DTD SVG 1.1//EN"
 "http://www.w3.org/Graphics/SVG/1.1/DTD/svg11.dtd">
<!-- Generated by graphviz version 2.43.0 (0)
 -->
<!-- Title: Epidemia Pages: 1 -->
<svg width="3318pt" height="3090pt"
 viewBox="0.00 0.00 3317.52 3090.43" xmlns="http://www.w3.org/2000/svg" xmlns:xlink="http://www.w3.org/1999/xlink">
<g id="graph0" class="graph" transform="scale(1 1) rotate(0) translate(4 3086.43)">
<title>Epidemia</title>
<polygon fill="white" stroke="transparent" points="-4,4 -4,-3086.43 3313.52,-3086.43 3313.52,4 -4,4"/>
<!-- 0 -->
<g id="node1" class="node">
<title>0</title>
<ellipse fill="blue" stroke="blue" cx="3110.13" cy="-1541.22" rx="57.69" ry="18"/>
<text text-anchor="middle" x="3110.13" y="-1537.52" font-family="Times,serif" font-size="14.00">Usuario_0</text>
</g>
<!-- 1 -->
<g id="node2" class="node">
<title>1</title>
<ellipse fill="blue" stroke="blue" cx="1586.91" cy="-3064.43" rx="57.69" ry="18"/>
<text text-anchor="middle" x="1586.91" y="-3060.73" font-family="Times,serif" font-size="14.00">Usuario_1</text>
</g>
<!-- 0&#45;&#45;1 -->
<g id="edge1" class="edge">
<title>0&#45;&#45;1</title>
<path fill="none" stroke="black" d="M3092.76,-1558.59C2935.64,-1715.71 1761.84,-2889.51 1604.36,-3046.98"/>
</g>
<!-- 34 -->
<g id="node35" class="node">
<title>34</title>
<ellipse fill="green" stroke="green" cx="3097.1" cy="-1342.4" rx="63.89" ry="18"/>
<text text-anchor="middle" x="3097.1" y="-1338.7" font-family="Times,serif" font-size="14.00">Usuario_34</text>
</g>
<!-- 0&#45;&#45;34 -->
<g id="edge3" class="edge">
<title>0&#45;&#45;34</title>
<path fill="none" stroke="black" d="M3108.93,-1522.87C3106.44,-1484.9 3100.75,-1398.1 3098.28,-1360.41"/>
</g>
<!-- 37 -->
<g id="node38" class="node">
<title>37</title>
<ellipse fill="green" stroke="green" cx="3097.1" cy="-1740.04" rx="63.89" ry="18"/>
<text text-anchor="middle" x="3097.1" y="-1736.34" font-family="Times,serif" font-size="14.00">Usuario_37</text>
</g>
<!-- 0&#45;&#45;37 -->
<g id="edge2" class="edge">
<title>0&#45;&#45;37</title>
<path fill="none" stroke="black" d="M3108.93,-1559.57C3106.44,-1597.54 3100.75,-1684.33 3098.28,-1722.02"/>
</g>
<!-- 49 -->
<g id="node50" class="node">
<title>49</title>
<ellipse fill="black" stroke="black" cx="3245.82" cy="-1541.22" rx="63.89" ry="18"/>
<text text-anchor="middle" x="3245.82" y="-1537.52" font-family="Times,serif" font-size="14.00">Usuario_49</text>
</g>
<!-- 0&#45;&#45;49 -->
<g id="edge4" class="edge">
<title>0&#45;&#45;49</title>
<path fill="none" stroke="black" d="M3168.07,-1541.22C3172.68,-1541.22 3177.35,-1541.22 3182,-1541.22"/>
</g>
<!-- 2 -->
<g id="node3" class="node">
<title>2</title>
<ellipse fill="green" stroke="green" cx="1785.73" cy="-3051.4" rx="57.69" ry="18"/>
<text text-anchor="middle" x="1785.73" y="-3047.7" font-family="Times,serif" font-size="14.00">Usuario_2</text>
</g>
<!-- 1&#45;&#45;2 -->
<g id="edge5" class="edge">
<title>1&#45;&#45;2</title>
<path fill="none" stroke="black" d="M1643.62,-3060.72C1670.36,-3058.97 1702.2,-3056.88 1728.95,-3055.13"/>
</g>
<!-- 3 -->
<g id="node4" class="node">
<title>3</title>
<ellipse fill="yellow" stroke="yellow" cx="1192.67" cy="-3012.53" rx="57.69" ry="18"/>
<text text-anchor="middle" x="1192.67" y="-3008.83" font-family="Times,serif" font-size="14.00">Usuario_3</text>
</g>
<!-- 1&#45;&#45;3 -->
<g id="edge6" class="edge">
<title>1&#45;&#45;3</title>
<path fill="none" stroke="black" d="M1533.33,-3057.38C1457.96,-3047.46 1321.44,-3029.49 1246.14,-3019.57"/>
</g>
<!-- 45 -->
<g id="node46" class="node">
<title>45</title>
<ellipse fill="yellow" stroke="yellow" cx="1388.09" cy="-3051.4" rx="63.89" ry="18"/>
<text text-anchor="middle" x="1388.09" y="-3047.7" font-family="Times,serif" font-size="14.00">Usuario_45</text>
</g>
<!-- 1&#45;&#45;45 -->
<g id="edge7" class="edge">
<title>1&#45;&#45;45</title>
<path fill="none" stroke="black" d="M1530.2,-3060.72C1505.3,-3059.09 1475.98,-3057.16 1450.45,-3055.49"/>
</g>
<!-- 10 -->
<g id="node11" class="node">
<title>10</title>
<ellipse fill="green" stroke="green" cx="1981.15" cy="-3012.53" rx="63.89" ry="18"/>
<text text-anchor="middle" x="1981.15" y="-3008.83" font-family="Times,serif" font-size="14.00">Usuario_10</text>
</g>
<!-- 2&#45;&#45;10 -->
<g id="edge9" class="edge">
<title>2&#45;&#45;10</title>
<path fill="none" stroke="black" d="M1834.54,-3041.7C1863.25,-3035.98 1899.56,-3028.76 1928.86,-3022.93"/>
</g>
<!-- 35 -->
<g id="node36" class="node">
<title>35</title>
<ellipse fill="green" stroke="green" cx="2994.18" cy="-2124.13" rx="63.89" ry="18"/>
<text text-anchor="middle" x="2994.18" y="-2120.43" font-family="Times,serif" font-size="14.00">Usuario_35</text>
</g>
<!-- 2&#45;&#45;35 -->
<g id="edge8" class="edge">
<title>2&#45;&#45;35</title>
<path fill="none" stroke="black" d="M1807.48,-3034.72C1956.11,-2920.66 2820.88,-2257.11 2971.74,-2141.35"/>
</g>
<!-- 4 -->
<g id="node5" class="node">
<title>4</title>
<ellipse fill="green" stroke="green" cx="1004" cy="-2948.49" rx="57.69" ry="18"/>
<text text-anchor="middle" x="1004" y="-2944.79" font-family="Times,serif" font-size="14.00">Usuario_4</text>
</g>
<!-- 3&#45;&#45;4 -->
<g id="edge10" class="edge">
<title>3&#45;&#45;4</title>
<path fill="none" stroke="black" d="M1153.58,-2999.26C1121.31,-2988.31 1075.72,-2972.83 1043.37,-2961.85"/>
</g>
<!-- 5 -->
<g id="node6" class="node">
<title>5</title>
<ellipse fill="green" stroke="green" cx="825.3" cy="-2860.36" rx="57.69" ry="18"/>
<text text-anchor="middle" x="825.3" y="-2856.66" font-family="Times,serif" font-size="14.00">Usuario_5</text>
</g>
<!-- 3&#45;&#45;5 -->
<g id="edge11" class="edge">
<title>3&#45;&#45;5</title>
<path fill="none" stroke="black" d="M1157.78,-2998.08C1087.66,-2969.03 930.38,-2903.89 860.23,-2874.83"/>
</g>
<!-- 4&#45;&#45;5 -->
<g id="edge12" class="edge">
<title>4&#45;&#45;5</title>
<path fill="none" stroke="black" d="M972.87,-2933.14C940.18,-2917.01 889.05,-2891.8 856.37,-2875.68"/>
</g>
<!-- 6 -->
<g id="node7" class="node">
<title>6</title>
<ellipse fill="green" stroke="green" cx="659.64" cy="-2749.67" rx="57.69" ry="18"/>
<text text-anchor="middle" x="659.64" y="-2745.97" font-family="Times,serif" font-size="14.00">Usuario_6</text>
</g>
<!-- 4&#45;&#45;6 -->
<g id="edge13" class="edge">
<title>4&#45;&#45;6</title>
<path fill="none" stroke="black" d="M976.4,-2932.55C911.92,-2895.33 751.98,-2802.98 687.37,-2765.68"/>
</g>
<!-- 5&#45;&#45;6 -->
<g id="edge15" class="edge">
<title>5&#45;&#45;6</title>
<path fill="none" stroke="black" d="M800.86,-2844.03C769.54,-2823.1 715.55,-2787.03 684.18,-2766.07"/>
</g>
<!-- 7 -->
<g id="node8" class="node">
<title>7</title>
<ellipse fill="green" stroke="green" cx="1004" cy="-133.95" rx="57.69" ry="18"/>
<text text-anchor="middle" x="1004" y="-130.25" font-family="Times,serif" font-size="14.00">Usuario_7</text>
</g>
<!-- 5&#45;&#45;7 -->
<g id="edge16" class="edge">
<title>5&#45;&#45;7</title>
<path fill="none" stroke="black" d="M826.49,-2842.23C841.22,-2617.58 988.08,-376.92 1002.81,-152.11"/>
</g>
<!-- 22 -->
<g id="node23" class="node">
<title>22</title>
<ellipse fill="green" stroke="green" cx="509.83" cy="-2618.29" rx="63.89" ry="18"/>
<text text-anchor="middle" x="509.83" y="-2614.59" font-family="Times,serif" font-size="14.00">Usuario_22</text>
</g>
<!-- 5&#45;&#45;22 -->
<g id="edge14" class="edge">
<title>5&#45;&#45;22</title>
<path fill="none" stroke="black" d="M803.12,-2843.34C745.2,-2798.9 589.89,-2679.72 531.99,-2635.3"/>
</g>
<!-- 6&#45;&#45;7 -->
<g id="edge17" class="edge">
<title>6&#45;&#45;7</title>
<path fill="none" stroke="black" d="M662.02,-2731.57C690.88,-2512.31 972.79,-371 1001.62,-152"/>
</g>
<!-- 8 -->
<g id="node9" class="node">
<title>8</title>
<ellipse fill="green" stroke="green" cx="2514.19" cy="-2749.67" rx="57.69" ry="18"/>
<text text-anchor="middle" x="2514.19" y="-2745.97" font-family="Times,serif" font-size="14.00">Usuario_8</text>
</g>
<!-- 6&#45;&#45;8 -->
<g id="edge18" class="edge">
<title>6&#45;&#45;8</title>
<path fill="none" stroke="black" d="M717.69,-2749.67C994.55,-2749.67 2178.86,-2749.67 2456.01,-2749.67"/>
</g>
<!-- 9 -->
<g id="node10" class="node">
<title>9</title>
<ellipse fill="green" stroke="green" cx="2348.52" cy="-2860.36" rx="57.69" ry="18"/>
<text text-anchor="middle" x="2348.52" y="-2856.66" font-family="Times,serif" font-size="14.00">Usuario_9</text>
</g>
<!-- 7&#45;&#45;9 -->
<g id="edge22" class="edge">
<title>7&#45;&#45;9</title>
<path fill="none" stroke="black" d="M1012.94,-152.08C1123.79,-376.85 2229.84,-2619.7 2339.74,-2842.55"/>
</g>
<!-- 15 -->
<g id="node16" class="node">
<title>15</title>
<ellipse fill="green" stroke="green" cx="1586.91" cy="-18" rx="63.89" ry="18"/>
<text text-anchor="middle" x="1586.91" y="-14.3" font-family="Times,serif" font-size="14.00">Usuario_15</text>
</g>
<!-- 7&#45;&#45;15 -->
<g id="edge19" class="edge">
<title>7&#45;&#45;15</title>
<path fill="none" stroke="black" d="M1052.95,-124.21C1161.75,-102.57 1422.86,-50.63 1534.66,-28.39"/>
</g>
<!-- 16 -->
<g id="node17" class="node">
<title>16</title>
<ellipse fill="green" stroke="green" cx="1785.73" cy="-31.03" rx="63.89" ry="18"/>
<text text-anchor="middle" x="1785.73" y="-27.33" font-family="Times,serif" font-size="14.00">Usuario_16</text>
</g>
<!-- 7&#45;&#45;16 -->
<g id="edge21" class="edge">
<title>7&#45;&#45;16</title>
<path fill="none" stroke="black" d="M1057.43,-126.91C1198.76,-108.31 1581.63,-57.9 1727.88,-38.65"/>
</g>
<!-- 28 -->
<g id="node29" class="node">
<title>28</title>
<ellipse fill="green" stroke="green" cx="267.77" cy="-779.61" rx="63.89" ry="18"/>
<text text-anchor="middle" x="267.77" y="-775.91" font-family="Times,serif" font-size="14.00">Usuario_28</text>
</g>
<!-- 7&#45;&#45;28 -->
<g id="edge20" class="edge">
<title>7&#45;&#45;28</title>
<path fill="none" stroke="black" d="M984.31,-151.22C879.92,-242.77 392.06,-670.61 287.52,-762.29"/>
</g>
<!-- 8&#45;&#45;9 -->
<g id="edge24" class="edge">
<title>8&#45;&#45;9</title>
<path fill="none" stroke="black" d="M2489.74,-2766C2458.42,-2786.93 2404.44,-2823 2373.07,-2843.96"/>
</g>
<!-- 8&#45;&#45;10 -->
<g id="edge25" class="edge">
<title>8&#45;&#45;10</title>
<path fill="none" stroke="black" d="M2483.23,-2764.94C2389.24,-2811.29 2107.85,-2950.05 2012.87,-2996.89"/>
</g>
<!-- 48 -->
<g id="node49" class="node">
<title>48</title>
<ellipse fill="blue" stroke="blue" cx="2795.36" cy="-613.94" rx="63.89" ry="18"/>
<text text-anchor="middle" x="2795.36" y="-610.24" font-family="Times,serif" font-size="14.00">Usuario_48</text>
</g>
<!-- 8&#45;&#45;48 -->
<g id="edge23" class="edge">
<title>8&#45;&#45;48</title>
<path fill="none" stroke="black" d="M2516.58,-2731.53C2542.28,-2536.26 2767.36,-826.67 2792.99,-631.97"/>
</g>
<!-- 9&#45;&#45;10 -->
<g id="edge26" class="edge">
<title>9&#45;&#45;10</title>
<path fill="none" stroke="black" d="M2313.63,-2874.82C2243.87,-2903.71 2087.83,-2968.34 2017.16,-2997.62"/>
</g>
<!-- 11 -->
<g id="node12" class="node">
<title>11</title>
<ellipse fill="green" stroke="green" cx="2169.82" cy="-2948.49" rx="63.89" ry="18"/>
<text text-anchor="middle" x="2169.82" y="-2944.79" font-family="Times,serif" font-size="14.00">Usuario_11</text>
</g>
<!-- 9&#45;&#45;11 -->
<g id="edge27" class="edge">
<title>9&#45;&#45;11</title>
<path fill="none" stroke="black" d="M2317.39,-2875.71C2284.89,-2891.74 2234.19,-2916.74 2201.49,-2932.87"/>
</g>
<!-- 10&#45;&#45;11 -->
<g id="edge28" class="edge">
<title>10&#45;&#45;11</title>
<path fill="none" stroke="black" d="M2022.09,-2998.64C2053.74,-2987.89 2097.34,-2973.09 2128.96,-2962.36"/>
</g>
<!-- 31 -->
<g id="node32" class="node">
<title>31</title>
<ellipse fill="green" stroke="green" cx="2514.19" cy="-332.77" rx="63.89" ry="18"/>
<text text-anchor="middle" x="2514.19" y="-329.07" font-family="Times,serif" font-size="14.00">Usuario_31</text>
</g>
<!-- 10&#45;&#45;31 -->
<g id="edge29" class="edge">
<title>10&#45;&#45;31</title>
<path fill="none" stroke="black" d="M1984.77,-2994.35C2029.07,-2771.63 2466.28,-573.6 2510.57,-350.94"/>
</g>
<!-- 12 -->
<g id="node13" class="node">
<title>12</title>
<ellipse fill="green" stroke="green" cx="2663.99" cy="-2618.29" rx="63.89" ry="18"/>
<text text-anchor="middle" x="2663.99" y="-2614.59" font-family="Times,serif" font-size="14.00">Usuario_12</text>
</g>
<!-- 11&#45;&#45;12 -->
<g id="edge30" class="edge">
<title>11&#45;&#45;12</title>
<path fill="none" stroke="black" d="M2194.67,-2931.89C2279.12,-2875.46 2554.57,-2691.41 2639.1,-2634.93"/>
</g>
<!-- 14 -->
<g id="node15" class="node">
<title>14</title>
<ellipse fill="green" stroke="green" cx="2795.36" cy="-2468.49" rx="63.89" ry="18"/>
<text text-anchor="middle" x="2795.36" y="-2464.79" font-family="Times,serif" font-size="14.00">Usuario_14</text>
</g>
<!-- 12&#45;&#45;14 -->
<g id="edge32" class="edge">
<title>12&#45;&#45;14</title>
<path fill="none" stroke="black" d="M2679.32,-2600.82C2704.5,-2572.11 2754.35,-2515.26 2779.72,-2486.32"/>
</g>
<!-- 12&#45;&#45;34 -->
<g id="edge31" class="edge">
<title>12&#45;&#45;34</title>
<path fill="none" stroke="black" d="M2670.11,-2600.26C2718.74,-2456.99 3041.94,-1504.9 3090.89,-1360.69"/>
</g>
<!-- 13 -->
<g id="node14" class="node">
<title>13</title>
<ellipse fill="green" stroke="green" cx="2906.06" cy="-2302.83" rx="63.89" ry="18"/>
<text text-anchor="middle" x="2906.06" y="-2299.13" font-family="Times,serif" font-size="14.00">Usuario_13</text>
</g>
<!-- 13&#45;&#45;14 -->
<g id="edge33" class="edge">
<title>13&#45;&#45;14</title>
<path fill="none" stroke="black" d="M2894.21,-2320.56C2872.96,-2352.36 2828.6,-2418.75 2807.29,-2450.64"/>
</g>
<!-- 13&#45;&#45;15 -->
<g id="edge34" class="edge">
<title>13&#45;&#45;15</title>
<path fill="none" stroke="black" d="M2895.63,-2284.77C2778.59,-2082.04 1713.34,-236.98 1597.18,-35.78"/>
</g>
<!-- 14&#45;&#45;16 -->
<g id="edge36" class="edge">
<title>14&#45;&#45;16</title>
<path fill="none" stroke="black" d="M2787.82,-2450.28C2700.34,-2239.1 1880.25,-259.22 1793.2,-49.07"/>
</g>
<!-- 18 -->
<g id="node19" class="node">
<title>18</title>
<ellipse fill="green" stroke="green" cx="115.6" cy="-1146.98" rx="63.89" ry="18"/>
<text text-anchor="middle" x="115.6" y="-1143.28" font-family="Times,serif" font-size="14.00">Usuario_18</text>
</g>
<!-- 14&#45;&#45;18 -->
<g id="edge35" class="edge">
<title>14&#45;&#45;18</title>
<path fill="none" stroke="black" d="M2763.4,-2452.73C2481.87,-2313.9 428.87,-1301.47 147.52,-1162.72"/>
</g>
<!-- 15&#45;&#45;16 -->
<g id="edge38" class="edge">
<title>15&#45;&#45;16</title>
<path fill="none" stroke="black" d="M1649,-22.07C1672.7,-23.62 1699.71,-25.39 1723.43,-26.95"/>
</g>
<!-- 17 -->
<g id="node18" class="node">
<title>17</title>
<ellipse fill="green" stroke="green" cx="1388.09" cy="-31.03" rx="63.89" ry="18"/>
<text text-anchor="middle" x="1388.09" y="-27.33" font-family="Times,serif" font-size="14.00">Usuario_17</text>
</g>
<!-- 15&#45;&#45;17 -->
<g id="edge39" class="edge">
<title>15&#45;&#45;17</title>
<path fill="none" stroke="black" d="M1524.82,-22.07C1501.12,-23.62 1474.11,-25.39 1450.39,-26.95"/>
</g>
<!-- 33 -->
<g id="node34" class="node">
<title>33</title>
<ellipse fill="green" stroke="green" cx="1981.15" cy="-69.9" rx="63.89" ry="18"/>
<text text-anchor="middle" x="1981.15" y="-66.2" font-family="Times,serif" font-size="14.00">Usuario_33</text>
</g>
<!-- 15&#45;&#45;33 -->
<g id="edge37" class="edge">
<title>15&#45;&#45;33</title>
<path fill="none" stroke="black" d="M1644.66,-25.6C1719.3,-35.43 1848.53,-52.44 1923.25,-62.28"/>
</g>
<!-- 16&#45;&#45;17 -->
<g id="edge41" class="edge">
<title>16&#45;&#45;17</title>
<path fill="none" stroke="black" d="M1721.84,-31.03C1647.64,-31.03 1525.96,-31.03 1451.82,-31.03"/>
</g>
<!-- 16&#45;&#45;35 -->
<g id="edge40" class="edge">
<title>16&#45;&#45;35</title>
<path fill="none" stroke="black" d="M1796,-48.81C1906.42,-240.08 2872.81,-1913.91 2983.81,-2106.16"/>
</g>
<!-- 17&#45;&#45;18 -->
<g id="edge42" class="edge">
<title>17&#45;&#45;18</title>
<path fill="none" stroke="black" d="M1368.36,-48.34C1220.26,-178.22 284.48,-998.87 135.56,-1129.47"/>
</g>
<!-- 41 -->
<g id="node42" class="node">
<title>41</title>
<ellipse fill="green" stroke="green" cx="1192.67" cy="-69.9" rx="63.89" ry="18"/>
<text text-anchor="middle" x="1192.67" y="-66.2" font-family="Times,serif" font-size="14.00">Usuario_41</text>
</g>
<!-- 17&#45;&#45;41 -->
<g id="edge43" class="edge">
<title>17&#45;&#45;41</title>
<path fill="none" stroke="black" d="M1335.98,-41.4C1307.83,-47 1273.16,-53.89 1244.98,-59.5"/>
</g>
<!-- 20 -->
<g id="node21" class="node">
<title>20</title>
<ellipse fill="green" stroke="green" cx="115.6" cy="-1935.46" rx="63.89" ry="18"/>
<text text-anchor="middle" x="115.6" y="-1931.76" font-family="Times,serif" font-size="14.00">Usuario_20</text>
</g>
<!-- 18&#45;&#45;20 -->
<g id="edge45" class="edge">
<title>18&#45;&#45;20</title>
<path fill="none" stroke="black" d="M115.6,-1165.31C115.6,-1271.9 115.6,-1810.9 115.6,-1917.23"/>
</g>
<!-- 25 -->
<g id="node26" class="node">
<title>25</title>
<ellipse fill="green" stroke="green" cx="76.73" cy="-1342.4" rx="63.89" ry="18"/>
<text text-anchor="middle" x="76.73" y="-1338.7" font-family="Times,serif" font-size="14.00">Usuario_25</text>
</g>
<!-- 18&#45;&#45;25 -->
<g id="edge44" class="edge">
<title>18&#45;&#45;25</title>
<path fill="none" stroke="black" d="M112.01,-1165.01C104.6,-1202.24 87.7,-1287.22 80.3,-1324.41"/>
</g>
<!-- 19 -->
<g id="node20" class="node">
<title>19</title>
<ellipse fill="green" stroke="green" cx="179.64" cy="-2124.13" rx="63.89" ry="18"/>
<text text-anchor="middle" x="179.64" y="-2120.43" font-family="Times,serif" font-size="14.00">Usuario_19</text>
</g>
<!-- 21 -->
<g id="node22" class="node">
<title>21</title>
<ellipse fill="green" stroke="green" cx="267.77" cy="-2302.83" rx="63.89" ry="18"/>
<text text-anchor="middle" x="267.77" y="-2299.13" font-family="Times,serif" font-size="14.00">Usuario_21</text>
</g>
<!-- 19&#45;&#45;21 -->
<g id="edge47" class="edge">
<title>19&#45;&#45;21</title>
<path fill="none" stroke="black" d="M188.58,-2142.25C205.51,-2176.58 242.09,-2250.76 258.94,-2284.93"/>
</g>
<!-- 36 -->
<g id="node37" class="node">
<title>36</title>
<ellipse fill="green" stroke="green" cx="3058.23" cy="-1935.46" rx="63.89" ry="18"/>
<text text-anchor="middle" x="3058.23" y="-1931.76" font-family="Times,serif" font-size="14.00">Usuario_36</text>
</g>
<!-- 19&#45;&#45;36 -->
<g id="edge46" class="edge">
<title>19&#45;&#45;36</title>
<path fill="none" stroke="black" d="M241.77,-2120.06C620.63,-2095.22 2616.39,-1964.41 2995.88,-1939.54"/>
</g>
<!-- 20&#45;&#45;22 -->
<g id="edge48" class="edge">
<title>20&#45;&#45;22</title>
<path fill="none" stroke="black" d="M125.94,-1953.37C181.46,-2049.53 443.72,-2503.77 499.42,-2600.25"/>
</g>
<!-- 21&#45;&#45;22 -->
<g id="edge49" class="edge">
<title>21&#45;&#45;22</title>
<path fill="none" stroke="black" d="M281.47,-2320.69C324.08,-2376.22 453.88,-2545.37 496.28,-2600.63"/>
</g>
<!-- 23 -->
<g id="node24" class="node">
<title>23</title>
<ellipse fill="green" stroke="green" cx="378.46" cy="-2468.49" rx="63.89" ry="18"/>
<text text-anchor="middle" x="378.46" y="-2464.79" font-family="Times,serif" font-size="14.00">Usuario_23</text>
</g>
<!-- 21&#45;&#45;23 -->
<g id="edge50" class="edge">
<title>21&#45;&#45;23</title>
<path fill="none" stroke="black" d="M279.61,-2320.56C300.86,-2352.36 345.22,-2418.75 366.53,-2450.64"/>
</g>
<!-- 22&#45;&#45;23 -->
<g id="edge52" class="edge">
<title>22&#45;&#45;23</title>
<path fill="none" stroke="black" d="M494.51,-2600.82C469.33,-2572.11 419.48,-2515.26 394.1,-2486.32"/>
</g>
<!-- 24 -->
<g id="node25" class="node">
<title>24</title>
<ellipse fill="green" stroke="green" cx="76.73" cy="-1740.04" rx="63.89" ry="18"/>
<text text-anchor="middle" x="76.73" y="-1736.34" font-family="Times,serif" font-size="14.00">Usuario_24</text>
</g>
<!-- 22&#45;&#45;24 -->
<g id="edge53" class="edge">
<title>22&#45;&#45;24</title>
<path fill="none" stroke="black" d="M500.99,-2600.35C445.08,-2486.99 141.42,-1871.23 85.56,-1757.95"/>
</g>
<!-- 22&#45;&#45;41 -->
<g id="edge51" class="edge">
<title>22&#45;&#45;41</title>
<path fill="none" stroke="black" d="M514.65,-2600.31C572.34,-2385.01 1129.71,-304.91 1187.79,-88.14"/>
</g>
<!-- 23&#45;&#45;24 -->
<g id="edge54" class="edge">
<title>23&#45;&#45;24</title>
<path fill="none" stroke="black" d="M373.38,-2450.34C338.02,-2349.38 134.59,-1858.17 86.66,-1757.91"/>
</g>
<!-- 23&#45;&#45;24 -->
<g id="edge55" class="edge">
<title>23&#45;&#45;24</title>
<path fill="none" stroke="black" d="M368.54,-2450.65C320.65,-2350.47 117.19,-1859.22 81.81,-1758.2"/>
</g>
<!-- 26 -->
<g id="node27" class="node">
<title>26</title>
<ellipse fill="green" stroke="green" cx="63.69" cy="-1541.22" rx="63.89" ry="18"/>
<text text-anchor="middle" x="63.69" y="-1537.52" font-family="Times,serif" font-size="14.00">Usuario_26</text>
</g>
<!-- 24&#45;&#45;26 -->
<g id="edge58" class="edge">
<title>24&#45;&#45;26</title>
<path fill="none" stroke="black" d="M75.52,-1721.69C73.03,-1683.72 67.35,-1596.92 64.88,-1559.23"/>
</g>
<!-- 24&#45;&#45;28 -->
<g id="edge57" class="edge">
<title>24&#45;&#45;28</title>
<path fill="none" stroke="black" d="M80.37,-1721.71C104.44,-1600.73 240.22,-918.11 264.16,-797.74"/>
</g>
<!-- 24&#45;&#45;33 -->
<g id="edge56" class="edge">
<title>24&#45;&#45;33</title>
<path fill="none" stroke="black" d="M96.51,-1722.69C285.68,-1556.79 1771.96,-253.36 1961.32,-87.29"/>
</g>
<!-- 25&#45;&#45;26 -->
<g id="edge59" class="edge">
<title>25&#45;&#45;26</title>
<path fill="none" stroke="black" d="M75.52,-1360.75C73.03,-1398.72 67.35,-1485.51 64.88,-1523.2"/>
</g>
<!-- 27 -->
<g id="node28" class="node">
<title>27</title>
<ellipse fill="green" stroke="green" cx="179.64" cy="-958.31" rx="63.89" ry="18"/>
<text text-anchor="middle" x="179.64" y="-954.61" font-family="Times,serif" font-size="14.00">Usuario_27</text>
</g>
<!-- 25&#45;&#45;27 -->
<g id="edge60" class="edge">
<title>25&#45;&#45;27</title>
<path fill="none" stroke="black" d="M81.55,-1324.39C98.84,-1259.87 157.56,-1040.73 174.83,-976.28"/>
</g>
<!-- 26&#45;&#45;28 -->
<g id="edge62" class="edge">
<title>26&#45;&#45;28</title>
<path fill="none" stroke="black" d="M68.54,-1523.14C96.3,-1419.52 234.99,-901.92 262.88,-797.85"/>
</g>
<!-- 43 -->
<g id="node44" class="node">
<title>43</title>
<ellipse fill="green" stroke="green" cx="509.83" cy="-464.14" rx="63.89" ry="18"/>
<text text-anchor="middle" x="509.83" y="-460.44" font-family="Times,serif" font-size="14.00">Usuario_43</text>
</g>
<!-- 26&#45;&#45;43 -->
<g id="edge61" class="edge">
<title>26&#45;&#45;43</title>
<path fill="none" stroke="black" d="M71.25,-1522.97C125.01,-1393.19 448.97,-611.08 502.38,-482.13"/>
</g>
<!-- 27&#45;&#45;28 -->
<g id="edge63" class="edge">
<title>27&#45;&#45;28</title>
<path fill="none" stroke="black" d="M188.58,-940.19C205.51,-905.85 242.09,-831.68 258.94,-797.51"/>
</g>
<!-- 29 -->
<g id="node30" class="node">
<title>29</title>
<ellipse fill="green" stroke="green" cx="659.64" cy="-332.77" rx="63.89" ry="18"/>
<text text-anchor="middle" x="659.64" y="-329.07" font-family="Times,serif" font-size="14.00">Usuario_29</text>
</g>
<!-- 27&#45;&#45;29 -->
<g id="edge64" class="edge">
<title>27&#45;&#45;29</title>
<path fill="none" stroke="black" d="M193.23,-940.59C262.57,-850.23 576.33,-441.33 645.93,-350.63"/>
</g>
<!-- 28&#45;&#45;43 -->
<g id="edge66" class="edge">
<title>28&#45;&#45;43</title>
<path fill="none" stroke="black" d="M281.47,-761.74C324.08,-706.22 453.88,-537.07 496.28,-481.81"/>
</g>
<!-- 44 -->
<g id="node45" class="node">
<title>44</title>
<ellipse fill="green" stroke="green" cx="378.46" cy="-613.94" rx="63.89" ry="18"/>
<text text-anchor="middle" x="378.46" y="-610.24" font-family="Times,serif" font-size="14.00">Usuario_44</text>
</g>
<!-- 28&#45;&#45;44 -->
<g id="edge65" class="edge">
<title>28&#45;&#45;44</title>
<path fill="none" stroke="black" d="M279.61,-761.88C300.86,-730.08 345.22,-663.69 366.53,-631.79"/>
</g>
<!-- 30 -->
<g id="node31" class="node">
<title>30</title>
<ellipse fill="green" stroke="green" cx="825.3" cy="-222.07" rx="63.89" ry="18"/>
<text text-anchor="middle" x="825.3" y="-218.37" font-family="Times,serif" font-size="14.00">Usuario_30</text>
</g>
<!-- 29&#45;&#45;30 -->
<g id="edge67" class="edge">
<title>29&#45;&#45;30</title>
<path fill="none" stroke="black" d="M684.8,-315.96C716.12,-295.03 769.27,-259.51 800.45,-238.68"/>
</g>
<!-- 32 -->
<g id="node33" class="node">
<title>32</title>
<ellipse fill="green" stroke="green" cx="2663.99" cy="-464.14" rx="63.89" ry="18"/>
<text text-anchor="middle" x="2663.99" y="-460.44" font-family="Times,serif" font-size="14.00">Usuario_32</text>
</g>
<!-- 30&#45;&#45;32 -->
<g id="edge68" class="edge">
<title>30&#45;&#45;32</title>
<path fill="none" stroke="black" d="M883.11,-229.68C1157.94,-265.86 2330.4,-420.22 2605.88,-456.49"/>
</g>
<!-- 31&#45;&#45;33 -->
<g id="edge70" class="edge">
<title>31&#45;&#45;33</title>
<path fill="none" stroke="black" d="M2482.44,-317.11C2387.75,-270.41 2107.98,-132.45 2013.07,-85.64"/>
</g>
<!-- 42 -->
<g id="node43" class="node">
<title>42</title>
<ellipse fill="green" stroke="green" cx="2348.52" cy="-222.07" rx="63.89" ry="18"/>
<text text-anchor="middle" x="2348.52" y="-218.37" font-family="Times,serif" font-size="14.00">Usuario_42</text>
</g>
<!-- 31&#45;&#45;42 -->
<g id="edge69" class="edge">
<title>31&#45;&#45;42</title>
<path fill="none" stroke="black" d="M2489.03,-315.96C2457.71,-295.03 2404.55,-259.51 2373.38,-238.68"/>
</g>
<!-- 32&#45;&#45;34 -->
<g id="edge72" class="edge">
<title>32&#45;&#45;34</title>
<path fill="none" stroke="black" d="M2672.84,-482.08C2728.74,-595.44 3032.4,-1211.21 3088.26,-1324.48"/>
</g>
<!-- 32&#45;&#45;48 -->
<g id="edge71" class="edge">
<title>32&#45;&#45;48</title>
<path fill="none" stroke="black" d="M2679.32,-481.62C2704.5,-510.33 2754.35,-567.17 2779.72,-596.11"/>
</g>
<!-- 33&#45;&#45;34 -->
<g id="edge73" class="edge">
<title>33&#45;&#45;34</title>
<path fill="none" stroke="black" d="M1996.5,-87.41C2120.46,-228.75 2956.44,-1182.01 3081.47,-1324.57"/>
</g>
<!-- 34&#45;&#45;35 -->
<g id="edge74" class="edge">
<title>34&#45;&#45;35</title>
<path fill="none" stroke="black" d="M3094.71,-1360.57C3080.79,-1466.25 3010.44,-2000.64 2996.56,-2106.05"/>
</g>
<!-- 35&#45;&#45;36 -->
<g id="edge75" class="edge">
<title>35&#45;&#45;36</title>
<path fill="none" stroke="black" d="M3000.32,-2106.04C3012.56,-2069.97 3039.88,-1989.51 3052.1,-1953.49"/>
</g>
<!-- 35&#45;&#45;37 -->
<g id="edge76" class="edge">
<title>35&#45;&#45;37</title>
<path fill="none" stroke="black" d="M2999.01,-2106.12C3016.29,-2041.6 3075.01,-1822.46 3092.28,-1758.01"/>
</g>
<!-- 36&#45;&#45;37 -->
<g id="edge77" class="edge">
<title>36&#45;&#45;37</title>
<path fill="none" stroke="black" d="M3061.81,-1917.42C3069.22,-1880.19 3086.12,-1795.22 3093.52,-1758.03"/>
</g>
<!-- 38 -->
<g id="node39" class="node">
<title>38</title>
<ellipse fill="green" stroke="green" cx="3058.23" cy="-1146.98" rx="63.89" ry="18"/>
<text text-anchor="middle" x="3058.23" y="-1143.28" font-family="Times,serif" font-size="14.00">Usuario_38</text>
</g>
<!-- 37&#45;&#45;38 -->
<g id="edge78" class="edge">
<title>37&#45;&#45;38</title>
<path fill="none" stroke="black" d="M3095.91,-1721.96C3090.16,-1634.22 3065.19,-1253.28 3059.42,-1165.2"/>
</g>
<!-- 39 -->
<g id="node40" class="node">
<title>39</title>
<ellipse fill="green" stroke="green" cx="2994.18" cy="-958.31" rx="63.89" ry="18"/>
<text text-anchor="middle" x="2994.18" y="-954.61" font-family="Times,serif" font-size="14.00">Usuario_39</text>
</g>
<!-- 38&#45;&#45;39 -->
<g id="edge79" class="edge">
<title>38&#45;&#45;39</title>
<path fill="none" stroke="black" d="M3052.09,-1128.89C3039.84,-1092.83 3012.53,-1012.36 3000.3,-976.34"/>
</g>
<!-- 40 -->
<g id="node41" class="node">
<title>40</title>
<ellipse fill="green" stroke="green" cx="2169.82" cy="-133.95" rx="63.89" ry="18"/>
<text text-anchor="middle" x="2169.82" y="-130.25" font-family="Times,serif" font-size="14.00">Usuario_40</text>
</g>
<!-- 38&#45;&#45;40 -->
<g id="edge80" class="edge">
<title>38&#45;&#45;40</title>
<path fill="none" stroke="black" d="M3042.81,-1129.4C2934.86,-1006.31 2293.52,-275 2185.32,-151.62"/>
</g>
<!-- 39&#45;&#45;41 -->
<g id="edge81" class="edge">
<title>39&#45;&#45;41</title>
<path fill="none" stroke="black" d="M2962.15,-942.51C2741.1,-833.5 1444.38,-194.03 1224.38,-85.54"/>
</g>
<!-- 40&#45;&#45;41 -->
<g id="edge82" class="edge">
<title>40&#45;&#45;41</title>
<path fill="none" stroke="black" d="M2107.58,-129.87C1931.45,-118.32 1430.87,-85.51 1254.83,-73.98"/>
</g>
<!-- 40&#45;&#45;42 -->
<g id="edge83" class="edge">
<title>40&#45;&#45;42</title>
<path fill="none" stroke="black" d="M2201.77,-149.7C2234.3,-165.74 2284.42,-190.46 2316.85,-206.45"/>
</g>
<!-- 41&#45;&#45;42 -->
<g id="edge84" class="edge">
<title>41&#45;&#45;42</title>
<path fill="none" stroke="black" d="M1250.78,-77.55C1448.43,-103.57 2093.33,-188.48 2290.64,-214.45"/>
</g>
<!-- 41&#45;&#45;43 -->
<g id="edge85" class="edge">
<title>41&#45;&#45;43</title>
<path fill="none" stroke="black" d="M1164.63,-86.09C1054.08,-149.92 649.07,-383.75 538.11,-447.82"/>
</g>
<!-- 42&#45;&#45;43 -->
<g id="edge86" class="edge">
<title>42&#45;&#45;43</title>
<path fill="none" stroke="black" d="M2290.71,-229.68C2015.89,-265.86 843.42,-420.22 567.94,-456.49"/>
</g>
<!-- 47 -->
<g id="node48" class="node">
<title>47</title>
<ellipse fill="yellow" stroke="yellow" cx="2906.06" cy="-779.61" rx="63.89" ry="18"/>
<text text-anchor="middle" x="2906.06" y="-775.91" font-family="Times,serif" font-size="14.00">Usuario_47</text>
</g>
<!-- 42&#45;&#45;47 -->
<g id="edge87" class="edge">
<title>42&#45;&#45;47</title>
<path fill="none" stroke="black" d="M2366.13,-239.68C2449.7,-323.25 2805.75,-679.3 2888.72,-762.27"/>
</g>
<!-- 43&#45;&#45;44 -->
<g id="edge88" class="edge">
<title>43&#45;&#45;44</title>
<path fill="none" stroke="black" d="M494.51,-481.62C469.33,-510.33 419.48,-567.17 394.1,-596.11"/>
</g>
<!-- 45&#45;&#45;47 -->
<g id="edge89" class="edge">
<title>45&#45;&#45;47</title>
<path fill="none" stroke="black" d="M1400.09,-3033.45C1534.7,-2831.98 2759.31,-999.23 2894.04,-797.6"/>
</g>
<!-- 46 -->
<g id="node47" class="node">
<title>46</title>
<ellipse fill="yellow" stroke="yellow" cx="1527.61" cy="-1482.22" rx="63.89" ry="18"/>
<text text-anchor="middle" x="1527.61" y="-1478.52" font-family="Times,serif" font-size="14.00">Usuario_46</text>
</g>
<!-- 47&#45;&#45;48 -->
<g id="edge90" class="edge">
<title>47&#45;&#45;48</title>
<path fill="none" stroke="black" d="M2894.21,-761.88C2872.96,-730.08 2828.6,-663.69 2807.29,-631.79"/>
</g>
</g>
</svg>
